%TF.GenerationSoftware,KiCad,Pcbnew,9.0.5*%
%TF.CreationDate,2025-11-15T23:51:57+03:00*%
%TF.ProjectId,HAT_RP,4841545f-5250-42e6-9b69-6361645f7063,rev?*%
%TF.SameCoordinates,Original*%
%TF.FileFunction,Soldermask,Top*%
%TF.FilePolarity,Negative*%
%FSLAX46Y46*%
G04 Gerber Fmt 4.6, Leading zero omitted, Abs format (unit mm)*
G04 Created by KiCad (PCBNEW 9.0.5) date 2025-11-15 23:51:57*
%MOMM*%
%LPD*%
G01*
G04 APERTURE LIST*
G04 Aperture macros list*
%AMRoundRect*
0 Rectangle with rounded corners*
0 $1 Rounding radius*
0 $2 $3 $4 $5 $6 $7 $8 $9 X,Y pos of 4 corners*
0 Add a 4 corners polygon primitive as box body*
4,1,4,$2,$3,$4,$5,$6,$7,$8,$9,$2,$3,0*
0 Add four circle primitives for the rounded corners*
1,1,$1+$1,$2,$3*
1,1,$1+$1,$4,$5*
1,1,$1+$1,$6,$7*
1,1,$1+$1,$8,$9*
0 Add four rect primitives between the rounded corners*
20,1,$1+$1,$2,$3,$4,$5,0*
20,1,$1+$1,$4,$5,$6,$7,0*
20,1,$1+$1,$6,$7,$8,$9,0*
20,1,$1+$1,$8,$9,$2,$3,0*%
G04 Aperture macros list end*
%ADD10RoundRect,0.250000X-0.262500X-0.450000X0.262500X-0.450000X0.262500X0.450000X-0.262500X0.450000X0*%
%ADD11C,2.700000*%
%ADD12RoundRect,0.250000X-1.000000X1.500000X-1.000000X-1.500000X1.000000X-1.500000X1.000000X1.500000X0*%
%ADD13RoundRect,0.250000X0.300000X-2.050000X0.300000X2.050000X-0.300000X2.050000X-0.300000X-2.050000X0*%
%ADD14RoundRect,0.250002X5.149998X-4.449998X5.149998X4.449998X-5.149998X4.449998X-5.149998X-4.449998X0*%
%ADD15R,5.400000X2.900000*%
%ADD16RoundRect,0.250000X-0.475000X0.250000X-0.475000X-0.250000X0.475000X-0.250000X0.475000X0.250000X0*%
%ADD17RoundRect,0.250000X0.450000X-0.262500X0.450000X0.262500X-0.450000X0.262500X-0.450000X-0.262500X0*%
%ADD18RoundRect,0.250000X-1.500000X-1.000000X1.500000X-1.000000X1.500000X1.000000X-1.500000X1.000000X0*%
%ADD19RoundRect,0.243750X0.243750X0.456250X-0.243750X0.456250X-0.243750X-0.456250X0.243750X-0.456250X0*%
%ADD20RoundRect,0.243750X-0.456250X0.243750X-0.456250X-0.243750X0.456250X-0.243750X0.456250X0.243750X0*%
%ADD21R,1.700000X1.700000*%
%ADD22C,1.700000*%
%ADD23RoundRect,0.250000X-1.000000X-0.650000X1.000000X-0.650000X1.000000X0.650000X-1.000000X0.650000X0*%
G04 APERTURE END LIST*
D10*
%TO.C,R1*%
X108942700Y-53010000D03*
X110767700Y-53010000D03*
%TD*%
D11*
%TO.C,MH2*%
X161500000Y-47500000D03*
%TD*%
D12*
%TO.C,C3*%
X118491200Y-82597600D03*
X118491200Y-89097600D03*
%TD*%
D13*
%TO.C,U3*%
X125759200Y-82478600D03*
X127459200Y-82478600D03*
D14*
X129159200Y-73328600D03*
D13*
X130859200Y-82478600D03*
X132559200Y-82478600D03*
%TD*%
D15*
%TO.C,L1*%
X142367200Y-90881400D03*
X142367200Y-80981400D03*
%TD*%
D16*
%TO.C,C2*%
X125406400Y-87071800D03*
X125406400Y-88971800D03*
%TD*%
%TO.C,C5*%
X148920400Y-56174800D03*
X148920400Y-58074800D03*
%TD*%
D17*
%TO.C,R3*%
X113131800Y-80694100D03*
X113131800Y-78869100D03*
%TD*%
D11*
%TO.C,MH3*%
X103500000Y-96500000D03*
%TD*%
%TO.C,MH1*%
X103500000Y-47500000D03*
%TD*%
D18*
%TO.C,C4*%
X152301000Y-82118400D03*
X158801000Y-82118400D03*
%TD*%
D10*
%TO.C,R4*%
X152236800Y-89128800D03*
X154061800Y-89128800D03*
%TD*%
D19*
%TO.C,D2*%
X158658800Y-89128800D03*
X156783800Y-89128800D03*
%TD*%
D20*
%TO.C,D1*%
X113131800Y-74551500D03*
X113131800Y-76426500D03*
%TD*%
D21*
%TO.C,J2*%
X115163800Y-61900000D03*
D22*
X117703800Y-61900000D03*
X120243800Y-61900000D03*
X122783800Y-61900000D03*
X125323800Y-61900000D03*
X127863800Y-61900000D03*
X130403800Y-61900000D03*
X132943800Y-61900000D03*
%TD*%
D11*
%TO.C,MH4*%
X161500000Y-96500000D03*
%TD*%
D21*
%TO.C,J3*%
X144932600Y-73838000D03*
D22*
X144932600Y-71298000D03*
X144932600Y-68758000D03*
X144932600Y-66218000D03*
X144932600Y-63678000D03*
X144932600Y-61138000D03*
X144932600Y-58598000D03*
X144932600Y-56058000D03*
%TD*%
D23*
%TO.C,D3*%
X128645400Y-88910800D03*
X132645400Y-88910800D03*
%TD*%
D10*
%TO.C,R2*%
X108942700Y-55905600D03*
X110767700Y-55905600D03*
%TD*%
D21*
%TO.C,J1*%
X108370000Y-48770000D03*
D22*
X108370000Y-46230000D03*
X110910000Y-48770000D03*
X110910000Y-46230000D03*
X113450000Y-48770000D03*
X113450000Y-46230000D03*
X115990000Y-48770000D03*
X115990000Y-46230000D03*
X118530000Y-48770000D03*
X118530000Y-46230000D03*
X121070000Y-48770000D03*
X121070000Y-46230000D03*
X123610000Y-48770000D03*
X123610000Y-46230000D03*
X126150000Y-48770000D03*
X126150000Y-46230000D03*
X128690000Y-48770000D03*
X128690000Y-46230000D03*
X131230000Y-48770000D03*
X131230000Y-46230000D03*
X133770000Y-48770000D03*
X133770000Y-46230000D03*
X136310000Y-48770000D03*
X136310000Y-46230000D03*
X138850000Y-48770000D03*
X138850000Y-46230000D03*
X141390000Y-48770000D03*
X141390000Y-46230000D03*
X143930000Y-48770000D03*
X143930000Y-46230000D03*
X146470000Y-48770000D03*
X146470000Y-46230000D03*
X149010000Y-48770000D03*
X149010000Y-46230000D03*
X151550000Y-48770000D03*
X151550000Y-46230000D03*
X154090000Y-48770000D03*
X154090000Y-46230000D03*
X156630000Y-48770000D03*
X156630000Y-46230000D03*
%TD*%
M02*
