%TF.GenerationSoftware,KiCad,Pcbnew,9.0.5*%
%TF.CreationDate,2025-11-15T23:51:57+03:00*%
%TF.ProjectId,HAT_RP,4841545f-5250-42e6-9b69-6361645f7063,rev?*%
%TF.SameCoordinates,Original*%
%TF.FileFunction,Copper,L2,Bot*%
%TF.FilePolarity,Positive*%
%FSLAX46Y46*%
G04 Gerber Fmt 4.6, Leading zero omitted, Abs format (unit mm)*
G04 Created by KiCad (PCBNEW 9.0.5) date 2025-11-15 23:51:57*
%MOMM*%
%LPD*%
G01*
G04 APERTURE LIST*
%TA.AperFunction,ComponentPad*%
%ADD10R,1.700000X1.700000*%
%TD*%
%TA.AperFunction,ComponentPad*%
%ADD11C,1.700000*%
%TD*%
%TA.AperFunction,ViaPad*%
%ADD12C,0.800000*%
%TD*%
%TA.AperFunction,ViaPad*%
%ADD13C,1.000000*%
%TD*%
%TA.AperFunction,Conductor*%
%ADD14C,0.700000*%
%TD*%
%TA.AperFunction,Conductor*%
%ADD15C,0.400000*%
%TD*%
G04 APERTURE END LIST*
D10*
%TO.P,J2,1,Pin_1*%
%TO.N,CS_CAM*%
X115163800Y-61900000D03*
D11*
%TO.P,J2,2,Pin_2*%
%TO.N,MOSI*%
X117703800Y-61900000D03*
%TO.P,J2,3,Pin_3*%
%TO.N,MISO*%
X120243800Y-61900000D03*
%TO.P,J2,4,Pin_4*%
%TO.N,SCK_CAM*%
X122783800Y-61900000D03*
%TO.P,J2,5,Pin_5*%
%TO.N,GND*%
X125323800Y-61900000D03*
%TO.P,J2,6,Pin_6*%
%TO.N,5V*%
X127863800Y-61900000D03*
%TO.P,J2,7,Pin_7*%
%TO.N,SDA_CAM*%
X130403800Y-61900000D03*
%TO.P,J2,8,Pin_8*%
%TO.N,SCL_CAM*%
X132943800Y-61900000D03*
%TD*%
D10*
%TO.P,J3,1,Pin_1*%
%TO.N,3.3V*%
X144932600Y-73838000D03*
D11*
%TO.P,J3,2,Pin_2*%
%TO.N,SCK_CAM*%
X144932600Y-71298000D03*
%TO.P,J3,3,Pin_3*%
%TO.N,MOSI*%
X144932600Y-68758000D03*
%TO.P,J3,4,Pin_4*%
%TO.N,A0{slash}DC*%
X144932600Y-66218000D03*
%TO.P,J3,5,Pin_5*%
%TO.N,RESET*%
X144932600Y-63678000D03*
%TO.P,J3,6,Pin_6*%
%TO.N,CS_TFT*%
X144932600Y-61138000D03*
%TO.P,J3,7,Pin_7*%
%TO.N,GND*%
X144932600Y-58598000D03*
%TO.P,J3,8,Pin_8*%
%TO.N,3.3V*%
X144932600Y-56058000D03*
%TD*%
D10*
%TO.P,J1,1,Pin_1*%
%TO.N,+3V3*%
X108370000Y-48770000D03*
D11*
%TO.P,J1,2,Pin_2*%
%TO.N,5V*%
X108370000Y-46230000D03*
%TO.P,J1,3,Pin_3*%
%TO.N,SDA_CAM*%
X110910000Y-48770000D03*
%TO.P,J1,4,Pin_4*%
%TO.N,5V*%
X110910000Y-46230000D03*
%TO.P,J1,5,Pin_5*%
%TO.N,SCL_CAM*%
X113450000Y-48770000D03*
%TO.P,J1,6,Pin_6*%
%TO.N,GND*%
X113450000Y-46230000D03*
%TO.P,J1,7,Pin_7*%
%TO.N,unconnected-(J1-Pin_7-Pad7)*%
X115990000Y-48770000D03*
%TO.P,J1,8,Pin_8*%
%TO.N,/GPIO14{slash}TXD0*%
X115990000Y-46230000D03*
%TO.P,J1,9,Pin_9*%
%TO.N,GND*%
X118530000Y-48770000D03*
%TO.P,J1,10,Pin_10*%
%TO.N,/GPIO15{slash}RXD0*%
X118530000Y-46230000D03*
%TO.P,J1,11,Pin_11*%
%TO.N,/GPIO17*%
X121070000Y-48770000D03*
%TO.P,J1,12,Pin_12*%
%TO.N,/GPIO18{slash}PCM.CLK*%
X121070000Y-46230000D03*
%TO.P,J1,13,Pin_13*%
%TO.N,unconnected-(J1-Pin_13-Pad13)*%
X123610000Y-48770000D03*
%TO.P,J1,14,Pin_14*%
%TO.N,GND*%
X123610000Y-46230000D03*
%TO.P,J1,15,Pin_15*%
%TO.N,unconnected-(J1-Pin_15-Pad15)*%
X126150000Y-48770000D03*
%TO.P,J1,16,Pin_16*%
%TO.N,/GPIO23*%
X126150000Y-46230000D03*
%TO.P,J1,17,Pin_17*%
%TO.N,+3V3*%
X128690000Y-48770000D03*
%TO.P,J1,18,Pin_18*%
%TO.N,A0{slash}DC*%
X128690000Y-46230000D03*
%TO.P,J1,19,Pin_19*%
%TO.N,MOSI*%
X131230000Y-48770000D03*
%TO.P,J1,20,Pin_20*%
%TO.N,GND*%
X131230000Y-46230000D03*
%TO.P,J1,21,Pin_21*%
%TO.N,MISO*%
X133770000Y-48770000D03*
%TO.P,J1,22,Pin_22*%
%TO.N,RESET*%
X133770000Y-46230000D03*
%TO.P,J1,23,Pin_23*%
%TO.N,SCK_CAM*%
X136310000Y-48770000D03*
%TO.P,J1,24,Pin_24*%
%TO.N,CS_CAM*%
X136310000Y-46230000D03*
%TO.P,J1,25,Pin_25*%
%TO.N,GND*%
X138850000Y-48770000D03*
%TO.P,J1,26,Pin_26*%
%TO.N,CS_TFT*%
X138850000Y-46230000D03*
%TO.P,J1,27,Pin_27*%
%TO.N,/ID_SDA*%
X141390000Y-48770000D03*
%TO.P,J1,28,Pin_28*%
%TO.N,/ID_SCL*%
X141390000Y-46230000D03*
%TO.P,J1,29,Pin_29*%
%TO.N,/GPIO5*%
X143930000Y-48770000D03*
%TO.P,J1,30,Pin_30*%
%TO.N,GND*%
X143930000Y-46230000D03*
%TO.P,J1,31,Pin_31*%
%TO.N,/GPIO6*%
X146470000Y-48770000D03*
%TO.P,J1,32,Pin_32*%
%TO.N,/GPIO12{slash}PWM0*%
X146470000Y-46230000D03*
%TO.P,J1,33,Pin_33*%
%TO.N,/GPIO13{slash}PWM1*%
X149010000Y-48770000D03*
%TO.P,J1,34,Pin_34*%
%TO.N,GND*%
X149010000Y-46230000D03*
%TO.P,J1,35,Pin_35*%
%TO.N,/GPIO19{slash}PCM.FS*%
X151550000Y-48770000D03*
%TO.P,J1,36,Pin_36*%
%TO.N,/GPIO16*%
X151550000Y-46230000D03*
%TO.P,J1,37,Pin_37*%
%TO.N,/GPIO26*%
X154090000Y-48770000D03*
%TO.P,J1,38,Pin_38*%
%TO.N,/GPIO20{slash}PCM.DIN*%
X154090000Y-46230000D03*
%TO.P,J1,39,Pin_39*%
%TO.N,GND*%
X156630000Y-48770000D03*
%TO.P,J1,40,Pin_40*%
%TO.N,/GPIO21{slash}PCM.DOUT*%
X156630000Y-46230000D03*
%TD*%
D12*
%TO.N,GND*%
X132559200Y-82478600D03*
D13*
X132645400Y-88910800D03*
D12*
X113131800Y-74551500D03*
D13*
X129159200Y-73328600D03*
X158801000Y-82118400D03*
D12*
X158658800Y-89128800D03*
X125472600Y-88752400D03*
X148920400Y-58074800D03*
D13*
X118491200Y-89097600D03*
%TD*%
D14*
%TO.N,SDA_CAM*%
X130403800Y-61900000D02*
X121920200Y-53416400D01*
X115556400Y-53416400D02*
X110910000Y-48770000D01*
X121920200Y-53416400D02*
X115556400Y-53416400D01*
D15*
%TO.N,SCL_CAM*%
X113450000Y-48807000D02*
X113450000Y-48770000D01*
D14*
X122631400Y-51587600D02*
X116267600Y-51587600D01*
X132943800Y-61900000D02*
X122631400Y-51587600D01*
X116267600Y-51587600D02*
X113450000Y-48770000D01*
D15*
%TO.N,CS_TFT*%
X140139000Y-56344400D02*
X140139000Y-47519000D01*
X144932600Y-61138000D02*
X140139000Y-56344400D01*
X140139000Y-47519000D02*
X138850000Y-46230000D01*
%TO.N,A0{slash}DC*%
X129941000Y-47481000D02*
X128690000Y-46230000D01*
X131710182Y-47481000D02*
X129941000Y-47481000D01*
X144932600Y-66218000D02*
X132481000Y-53766400D01*
X132481000Y-48251818D02*
X131710182Y-47481000D01*
X132481000Y-53766400D02*
X132481000Y-48251818D01*
%TO.N,RESET*%
X135021000Y-47481000D02*
X133770000Y-46230000D01*
X135021000Y-53766400D02*
X135021000Y-47481000D01*
X144932600Y-63678000D02*
X135021000Y-53766400D01*
%TO.N,+3V3*%
X108370000Y-48770000D02*
X109621000Y-47519000D01*
X109621000Y-47519000D02*
X127439000Y-47519000D01*
X127439000Y-47519000D02*
X128690000Y-48770000D01*
%TO.N,MOSI*%
X144932600Y-68758000D02*
X131230000Y-55055400D01*
X131230000Y-55055400D02*
X131230000Y-48770000D01*
%TD*%
%TA.AperFunction,Conductor*%
%TO.N,GND*%
G36*
X162003472Y-44050695D02*
G01*
X162323297Y-44068656D01*
X162337094Y-44070210D01*
X162649457Y-44123283D01*
X162663014Y-44126377D01*
X162967469Y-44214089D01*
X162980593Y-44218682D01*
X163273304Y-44339926D01*
X163285826Y-44345955D01*
X163452594Y-44438125D01*
X163563139Y-44499221D01*
X163574900Y-44506611D01*
X163833314Y-44689966D01*
X163844174Y-44698627D01*
X164080418Y-44909749D01*
X164090250Y-44919581D01*
X164301372Y-45155825D01*
X164310035Y-45166687D01*
X164493385Y-45425094D01*
X164500778Y-45436860D01*
X164654040Y-45714166D01*
X164660073Y-45726695D01*
X164781317Y-46019406D01*
X164785910Y-46032530D01*
X164873622Y-46336985D01*
X164876716Y-46350542D01*
X164929787Y-46662894D01*
X164931344Y-46676712D01*
X164949305Y-46996527D01*
X164949500Y-47003480D01*
X164949500Y-96996519D01*
X164949305Y-97003472D01*
X164931344Y-97323287D01*
X164929787Y-97337105D01*
X164876716Y-97649457D01*
X164873622Y-97663014D01*
X164785910Y-97967469D01*
X164781317Y-97980593D01*
X164660073Y-98273304D01*
X164654040Y-98285833D01*
X164500778Y-98563139D01*
X164493380Y-98574913D01*
X164310043Y-98833302D01*
X164301372Y-98844174D01*
X164090250Y-99080418D01*
X164080418Y-99090250D01*
X163844174Y-99301372D01*
X163833302Y-99310043D01*
X163574913Y-99493380D01*
X163563139Y-99500778D01*
X163285833Y-99654040D01*
X163273304Y-99660073D01*
X162980593Y-99781317D01*
X162967469Y-99785910D01*
X162663014Y-99873622D01*
X162649457Y-99876716D01*
X162337105Y-99929787D01*
X162323287Y-99931344D01*
X162003472Y-99949305D01*
X161996519Y-99949500D01*
X103003481Y-99949500D01*
X102996528Y-99949305D01*
X102676712Y-99931344D01*
X102662894Y-99929787D01*
X102350542Y-99876716D01*
X102336985Y-99873622D01*
X102032530Y-99785910D01*
X102019406Y-99781317D01*
X101726695Y-99660073D01*
X101714166Y-99654040D01*
X101436860Y-99500778D01*
X101425094Y-99493385D01*
X101166687Y-99310035D01*
X101155825Y-99301372D01*
X100919581Y-99090250D01*
X100909749Y-99080418D01*
X100698627Y-98844174D01*
X100689966Y-98833314D01*
X100506611Y-98574900D01*
X100499221Y-98563139D01*
X100345959Y-98285833D01*
X100339926Y-98273304D01*
X100218682Y-97980593D01*
X100214089Y-97967469D01*
X100126377Y-97663014D01*
X100123283Y-97649457D01*
X100077464Y-97379786D01*
X100070210Y-97337094D01*
X100068656Y-97323297D01*
X100050695Y-97003472D01*
X100050500Y-96996519D01*
X100050500Y-96393713D01*
X102149500Y-96393713D01*
X102149500Y-96606287D01*
X102182754Y-96816243D01*
X102241329Y-96996519D01*
X102248444Y-97018414D01*
X102344951Y-97207820D01*
X102469890Y-97379786D01*
X102620213Y-97530109D01*
X102792179Y-97655048D01*
X102792181Y-97655049D01*
X102792184Y-97655051D01*
X102981588Y-97751557D01*
X103183757Y-97817246D01*
X103393713Y-97850500D01*
X103393714Y-97850500D01*
X103606286Y-97850500D01*
X103606287Y-97850500D01*
X103816243Y-97817246D01*
X104018412Y-97751557D01*
X104207816Y-97655051D01*
X104229789Y-97639086D01*
X104379786Y-97530109D01*
X104379788Y-97530106D01*
X104379792Y-97530104D01*
X104530104Y-97379792D01*
X104530106Y-97379788D01*
X104530109Y-97379786D01*
X104655048Y-97207820D01*
X104655047Y-97207820D01*
X104655051Y-97207816D01*
X104751557Y-97018412D01*
X104817246Y-96816243D01*
X104850500Y-96606287D01*
X104850500Y-96393713D01*
X160149500Y-96393713D01*
X160149500Y-96606287D01*
X160182754Y-96816243D01*
X160241329Y-96996519D01*
X160248444Y-97018414D01*
X160344951Y-97207820D01*
X160469890Y-97379786D01*
X160620213Y-97530109D01*
X160792179Y-97655048D01*
X160792181Y-97655049D01*
X160792184Y-97655051D01*
X160981588Y-97751557D01*
X161183757Y-97817246D01*
X161393713Y-97850500D01*
X161393714Y-97850500D01*
X161606286Y-97850500D01*
X161606287Y-97850500D01*
X161816243Y-97817246D01*
X162018412Y-97751557D01*
X162207816Y-97655051D01*
X162229789Y-97639086D01*
X162379786Y-97530109D01*
X162379788Y-97530106D01*
X162379792Y-97530104D01*
X162530104Y-97379792D01*
X162530106Y-97379788D01*
X162530109Y-97379786D01*
X162655048Y-97207820D01*
X162655047Y-97207820D01*
X162655051Y-97207816D01*
X162751557Y-97018412D01*
X162817246Y-96816243D01*
X162850500Y-96606287D01*
X162850500Y-96393713D01*
X162817246Y-96183757D01*
X162751557Y-95981588D01*
X162655051Y-95792184D01*
X162655049Y-95792181D01*
X162655048Y-95792179D01*
X162530109Y-95620213D01*
X162379786Y-95469890D01*
X162207820Y-95344951D01*
X162018414Y-95248444D01*
X162018413Y-95248443D01*
X162018412Y-95248443D01*
X161816243Y-95182754D01*
X161816241Y-95182753D01*
X161816240Y-95182753D01*
X161654957Y-95157208D01*
X161606287Y-95149500D01*
X161393713Y-95149500D01*
X161345042Y-95157208D01*
X161183760Y-95182753D01*
X160981585Y-95248444D01*
X160792179Y-95344951D01*
X160620213Y-95469890D01*
X160469890Y-95620213D01*
X160344951Y-95792179D01*
X160248444Y-95981585D01*
X160182753Y-96183760D01*
X160149500Y-96393713D01*
X104850500Y-96393713D01*
X104817246Y-96183757D01*
X104751557Y-95981588D01*
X104655051Y-95792184D01*
X104655049Y-95792181D01*
X104655048Y-95792179D01*
X104530109Y-95620213D01*
X104379786Y-95469890D01*
X104207820Y-95344951D01*
X104018414Y-95248444D01*
X104018413Y-95248443D01*
X104018412Y-95248443D01*
X103816243Y-95182754D01*
X103816241Y-95182753D01*
X103816240Y-95182753D01*
X103654957Y-95157208D01*
X103606287Y-95149500D01*
X103393713Y-95149500D01*
X103345042Y-95157208D01*
X103183760Y-95182753D01*
X102981585Y-95248444D01*
X102792179Y-95344951D01*
X102620213Y-95469890D01*
X102469890Y-95620213D01*
X102344951Y-95792179D01*
X102248444Y-95981585D01*
X102182753Y-96183760D01*
X102149500Y-96393713D01*
X100050500Y-96393713D01*
X100050500Y-81008115D01*
X100051557Y-80991961D01*
X100063657Y-80899945D01*
X100072013Y-80868726D01*
X100104360Y-80790538D01*
X100120506Y-80762535D01*
X100171963Y-80695373D01*
X100194803Y-80672494D01*
X100261872Y-80620922D01*
X100289850Y-80604724D01*
X100367979Y-80572242D01*
X100399189Y-80563832D01*
X100457896Y-80556007D01*
X100491069Y-80551587D01*
X100507449Y-80550500D01*
X104562026Y-80550500D01*
X104682969Y-80522895D01*
X104794737Y-80469071D01*
X104891725Y-80391725D01*
X104969071Y-80294737D01*
X105022895Y-80182969D01*
X105050500Y-80062026D01*
X105050500Y-80000000D01*
X105050500Y-79983592D01*
X105050500Y-72968247D01*
X143882100Y-72968247D01*
X143882100Y-74707752D01*
X143893731Y-74766229D01*
X143893732Y-74766230D01*
X143938047Y-74832552D01*
X144004369Y-74876867D01*
X144004370Y-74876868D01*
X144062847Y-74888499D01*
X144062850Y-74888500D01*
X144062852Y-74888500D01*
X145802350Y-74888500D01*
X145802351Y-74888499D01*
X145817168Y-74885552D01*
X145860829Y-74876868D01*
X145860829Y-74876867D01*
X145860831Y-74876867D01*
X145927152Y-74832552D01*
X145971467Y-74766231D01*
X145971467Y-74766229D01*
X145971468Y-74766229D01*
X145983099Y-74707752D01*
X145983100Y-74707750D01*
X145983100Y-72968249D01*
X145983099Y-72968247D01*
X145971468Y-72909770D01*
X145971467Y-72909769D01*
X145927152Y-72843447D01*
X145860830Y-72799132D01*
X145860829Y-72799131D01*
X145802352Y-72787500D01*
X145802348Y-72787500D01*
X144062852Y-72787500D01*
X144062847Y-72787500D01*
X144004370Y-72799131D01*
X144004369Y-72799132D01*
X143938047Y-72843447D01*
X143893732Y-72909769D01*
X143893731Y-72909770D01*
X143882100Y-72968247D01*
X105050500Y-72968247D01*
X105050500Y-71194530D01*
X143882100Y-71194530D01*
X143882100Y-71401469D01*
X143922468Y-71604412D01*
X143922470Y-71604420D01*
X144001658Y-71795596D01*
X144116624Y-71967657D01*
X144262942Y-72113975D01*
X144262945Y-72113977D01*
X144435002Y-72228941D01*
X144626180Y-72308130D01*
X144829130Y-72348499D01*
X144829134Y-72348500D01*
X144829135Y-72348500D01*
X145036066Y-72348500D01*
X145036067Y-72348499D01*
X145239020Y-72308130D01*
X145430198Y-72228941D01*
X145602255Y-72113977D01*
X145748577Y-71967655D01*
X145863541Y-71795598D01*
X145942730Y-71604420D01*
X145983100Y-71401465D01*
X145983100Y-71194535D01*
X145942730Y-70991580D01*
X145863541Y-70800402D01*
X145748577Y-70628345D01*
X145748575Y-70628342D01*
X145602257Y-70482024D01*
X145516226Y-70424541D01*
X145430198Y-70367059D01*
X145239020Y-70287870D01*
X145239012Y-70287868D01*
X145036069Y-70247500D01*
X145036065Y-70247500D01*
X144829135Y-70247500D01*
X144829130Y-70247500D01*
X144626187Y-70287868D01*
X144626179Y-70287870D01*
X144435003Y-70367058D01*
X144262942Y-70482024D01*
X144116624Y-70628342D01*
X144001658Y-70800403D01*
X143922470Y-70991579D01*
X143922468Y-70991587D01*
X143882100Y-71194530D01*
X105050500Y-71194530D01*
X105050500Y-63979082D01*
X105050500Y-63937974D01*
X105022895Y-63817031D01*
X105005769Y-63781469D01*
X104999194Y-63767815D01*
X104969071Y-63705263D01*
X104891725Y-63608275D01*
X104794737Y-63530929D01*
X104778054Y-63522895D01*
X104682973Y-63477106D01*
X104682974Y-63477106D01*
X104562027Y-63449500D01*
X104562026Y-63449500D01*
X104520918Y-63449500D01*
X100508126Y-63449500D01*
X100491941Y-63448439D01*
X100481410Y-63447052D01*
X100399846Y-63436314D01*
X100368579Y-63427936D01*
X100290334Y-63395526D01*
X100262300Y-63379340D01*
X100195107Y-63327780D01*
X100172219Y-63304892D01*
X100120659Y-63237699D01*
X100104473Y-63209665D01*
X100092352Y-63180403D01*
X100072063Y-63131420D01*
X100063685Y-63100152D01*
X100051561Y-63008059D01*
X100050500Y-62991874D01*
X100050500Y-61030247D01*
X114113300Y-61030247D01*
X114113300Y-62769752D01*
X114124931Y-62828229D01*
X114124932Y-62828230D01*
X114169247Y-62894552D01*
X114235569Y-62938867D01*
X114235570Y-62938868D01*
X114294047Y-62950499D01*
X114294050Y-62950500D01*
X114294052Y-62950500D01*
X116033550Y-62950500D01*
X116033551Y-62950499D01*
X116048368Y-62947552D01*
X116092029Y-62938868D01*
X116092029Y-62938867D01*
X116092031Y-62938867D01*
X116158352Y-62894552D01*
X116202667Y-62828231D01*
X116202667Y-62828229D01*
X116202668Y-62828229D01*
X116214299Y-62769752D01*
X116214300Y-62769750D01*
X116214300Y-61796530D01*
X116653300Y-61796530D01*
X116653300Y-62003469D01*
X116693668Y-62206412D01*
X116693670Y-62206420D01*
X116772858Y-62397596D01*
X116887824Y-62569657D01*
X117034142Y-62715975D01*
X117034145Y-62715977D01*
X117206202Y-62830941D01*
X117397380Y-62910130D01*
X117541852Y-62938867D01*
X117600330Y-62950499D01*
X117600334Y-62950500D01*
X117600335Y-62950500D01*
X117807266Y-62950500D01*
X117807267Y-62950499D01*
X118010220Y-62910130D01*
X118201398Y-62830941D01*
X118373455Y-62715977D01*
X118519777Y-62569655D01*
X118634741Y-62397598D01*
X118713930Y-62206420D01*
X118754300Y-62003465D01*
X118754300Y-61796535D01*
X118754299Y-61796530D01*
X119193300Y-61796530D01*
X119193300Y-62003469D01*
X119233668Y-62206412D01*
X119233670Y-62206420D01*
X119312858Y-62397596D01*
X119427824Y-62569657D01*
X119574142Y-62715975D01*
X119574145Y-62715977D01*
X119746202Y-62830941D01*
X119937380Y-62910130D01*
X120081852Y-62938867D01*
X120140330Y-62950499D01*
X120140334Y-62950500D01*
X120140335Y-62950500D01*
X120347266Y-62950500D01*
X120347267Y-62950499D01*
X120550220Y-62910130D01*
X120741398Y-62830941D01*
X120913455Y-62715977D01*
X121059777Y-62569655D01*
X121174741Y-62397598D01*
X121253930Y-62206420D01*
X121294300Y-62003465D01*
X121294300Y-61796535D01*
X121294299Y-61796530D01*
X121733300Y-61796530D01*
X121733300Y-62003469D01*
X121773668Y-62206412D01*
X121773670Y-62206420D01*
X121852858Y-62397596D01*
X121967824Y-62569657D01*
X122114142Y-62715975D01*
X122114145Y-62715977D01*
X122286202Y-62830941D01*
X122477380Y-62910130D01*
X122621852Y-62938867D01*
X122680330Y-62950499D01*
X122680334Y-62950500D01*
X122680335Y-62950500D01*
X122887266Y-62950500D01*
X122887267Y-62950499D01*
X123090220Y-62910130D01*
X123281398Y-62830941D01*
X123453455Y-62715977D01*
X123599777Y-62569655D01*
X123714741Y-62397598D01*
X123793930Y-62206420D01*
X123834300Y-62003465D01*
X123834300Y-61796535D01*
X123793930Y-61593580D01*
X123714741Y-61402402D01*
X123599777Y-61230345D01*
X123599775Y-61230342D01*
X123453457Y-61084024D01*
X123285455Y-60971770D01*
X123281398Y-60969059D01*
X123273817Y-60965919D01*
X123090220Y-60889870D01*
X123090212Y-60889868D01*
X122887269Y-60849500D01*
X122887265Y-60849500D01*
X122680335Y-60849500D01*
X122680330Y-60849500D01*
X122477387Y-60889868D01*
X122477379Y-60889870D01*
X122286203Y-60969058D01*
X122114142Y-61084024D01*
X121967824Y-61230342D01*
X121852858Y-61402403D01*
X121773670Y-61593579D01*
X121773668Y-61593587D01*
X121733300Y-61796530D01*
X121294299Y-61796530D01*
X121253930Y-61593580D01*
X121174741Y-61402402D01*
X121059777Y-61230345D01*
X121059775Y-61230342D01*
X120913457Y-61084024D01*
X120745455Y-60971770D01*
X120741398Y-60969059D01*
X120733817Y-60965919D01*
X120550220Y-60889870D01*
X120550212Y-60889868D01*
X120347269Y-60849500D01*
X120347265Y-60849500D01*
X120140335Y-60849500D01*
X120140330Y-60849500D01*
X119937387Y-60889868D01*
X119937379Y-60889870D01*
X119746203Y-60969058D01*
X119574142Y-61084024D01*
X119427824Y-61230342D01*
X119312858Y-61402403D01*
X119233670Y-61593579D01*
X119233668Y-61593587D01*
X119193300Y-61796530D01*
X118754299Y-61796530D01*
X118713930Y-61593580D01*
X118634741Y-61402402D01*
X118519777Y-61230345D01*
X118519775Y-61230342D01*
X118373457Y-61084024D01*
X118205455Y-60971770D01*
X118201398Y-60969059D01*
X118193817Y-60965919D01*
X118010220Y-60889870D01*
X118010212Y-60889868D01*
X117807269Y-60849500D01*
X117807265Y-60849500D01*
X117600335Y-60849500D01*
X117600330Y-60849500D01*
X117397387Y-60889868D01*
X117397379Y-60889870D01*
X117206203Y-60969058D01*
X117034142Y-61084024D01*
X116887824Y-61230342D01*
X116772858Y-61402403D01*
X116693670Y-61593579D01*
X116693668Y-61593587D01*
X116653300Y-61796530D01*
X116214300Y-61796530D01*
X116214300Y-61030249D01*
X116214299Y-61030247D01*
X116202668Y-60971770D01*
X116202667Y-60971769D01*
X116158352Y-60905447D01*
X116092030Y-60861132D01*
X116092029Y-60861131D01*
X116033552Y-60849500D01*
X116033548Y-60849500D01*
X114294052Y-60849500D01*
X114294047Y-60849500D01*
X114235570Y-60861131D01*
X114235569Y-60861132D01*
X114169247Y-60905447D01*
X114124932Y-60971769D01*
X114124931Y-60971770D01*
X114113300Y-61030247D01*
X100050500Y-61030247D01*
X100050500Y-47393713D01*
X102149500Y-47393713D01*
X102149500Y-47606286D01*
X102180415Y-47801480D01*
X102182754Y-47816243D01*
X102245935Y-48010694D01*
X102248444Y-48018414D01*
X102344951Y-48207820D01*
X102469890Y-48379786D01*
X102620213Y-48530109D01*
X102792179Y-48655048D01*
X102792181Y-48655049D01*
X102792184Y-48655051D01*
X102981588Y-48751557D01*
X103183757Y-48817246D01*
X103393713Y-48850500D01*
X103393714Y-48850500D01*
X103606286Y-48850500D01*
X103606287Y-48850500D01*
X103816243Y-48817246D01*
X104018412Y-48751557D01*
X104207816Y-48655051D01*
X104229789Y-48639086D01*
X104379786Y-48530109D01*
X104379788Y-48530106D01*
X104379792Y-48530104D01*
X104530104Y-48379792D01*
X104530106Y-48379788D01*
X104530109Y-48379786D01*
X104655048Y-48207820D01*
X104655047Y-48207820D01*
X104655051Y-48207816D01*
X104751557Y-48018412D01*
X104789951Y-47900247D01*
X107319500Y-47900247D01*
X107319500Y-49639752D01*
X107331131Y-49698229D01*
X107331132Y-49698230D01*
X107375447Y-49764552D01*
X107441769Y-49808867D01*
X107441770Y-49808868D01*
X107500247Y-49820499D01*
X107500250Y-49820500D01*
X107500252Y-49820500D01*
X109239750Y-49820500D01*
X109239751Y-49820499D01*
X109254568Y-49817552D01*
X109298229Y-49808868D01*
X109298229Y-49808867D01*
X109298231Y-49808867D01*
X109364552Y-49764552D01*
X109408867Y-49698231D01*
X109408867Y-49698229D01*
X109408868Y-49698229D01*
X109420499Y-49639752D01*
X109420500Y-49639750D01*
X109420500Y-48337255D01*
X109440185Y-48270216D01*
X109456819Y-48249574D01*
X109750574Y-47955819D01*
X109777501Y-47941115D01*
X109803320Y-47924523D01*
X109809520Y-47923631D01*
X109811897Y-47922334D01*
X109838255Y-47919500D01*
X109982872Y-47919500D01*
X110049911Y-47939185D01*
X110095666Y-47991989D01*
X110105610Y-48061147D01*
X110085974Y-48112390D01*
X109979059Y-48272399D01*
X109979059Y-48272400D01*
X109899870Y-48463579D01*
X109899868Y-48463587D01*
X109859500Y-48666530D01*
X109859500Y-48873469D01*
X109899868Y-49076412D01*
X109899870Y-49076420D01*
X109979058Y-49267596D01*
X110094024Y-49439657D01*
X110240342Y-49585975D01*
X110240345Y-49585977D01*
X110412402Y-49700941D01*
X110603580Y-49780130D01*
X110801945Y-49819587D01*
X110806530Y-49820499D01*
X110806534Y-49820500D01*
X110806535Y-49820500D01*
X111013465Y-49820500D01*
X111089012Y-49805472D01*
X111158600Y-49811698D01*
X111200883Y-49839408D01*
X115218385Y-53856910D01*
X115329371Y-53920987D01*
X115343915Y-53929384D01*
X115483925Y-53966900D01*
X115483926Y-53966900D01*
X115628874Y-53966900D01*
X121640813Y-53966900D01*
X121707852Y-53986585D01*
X121728494Y-54003219D01*
X128488952Y-60763677D01*
X128522437Y-60825000D01*
X128517453Y-60894692D01*
X128475581Y-60950625D01*
X128410117Y-60975042D01*
X128353818Y-60965919D01*
X128170220Y-60889870D01*
X128170212Y-60889868D01*
X127967269Y-60849500D01*
X127967265Y-60849500D01*
X127760335Y-60849500D01*
X127760330Y-60849500D01*
X127557387Y-60889868D01*
X127557379Y-60889870D01*
X127366203Y-60969058D01*
X127194142Y-61084024D01*
X127047824Y-61230342D01*
X126932858Y-61402403D01*
X126853670Y-61593579D01*
X126853668Y-61593587D01*
X126813300Y-61796530D01*
X126813300Y-62003469D01*
X126853668Y-62206412D01*
X126853670Y-62206420D01*
X126932858Y-62397596D01*
X127047824Y-62569657D01*
X127194142Y-62715975D01*
X127194145Y-62715977D01*
X127366202Y-62830941D01*
X127557380Y-62910130D01*
X127701852Y-62938867D01*
X127760330Y-62950499D01*
X127760334Y-62950500D01*
X127760335Y-62950500D01*
X127967266Y-62950500D01*
X127967267Y-62950499D01*
X128170220Y-62910130D01*
X128361398Y-62830941D01*
X128533455Y-62715977D01*
X128679777Y-62569655D01*
X128794741Y-62397598D01*
X128873930Y-62206420D01*
X128914300Y-62003465D01*
X128914300Y-61796535D01*
X128873930Y-61593580D01*
X128797879Y-61409979D01*
X128790411Y-61340512D01*
X128821686Y-61278032D01*
X128881775Y-61242380D01*
X128951600Y-61244873D01*
X129000122Y-61274847D01*
X129334390Y-61609115D01*
X129367875Y-61670438D01*
X129368327Y-61720986D01*
X129353300Y-61796536D01*
X129353300Y-62003469D01*
X129393668Y-62206412D01*
X129393670Y-62206420D01*
X129472858Y-62397596D01*
X129587824Y-62569657D01*
X129734142Y-62715975D01*
X129734145Y-62715977D01*
X129906202Y-62830941D01*
X130097380Y-62910130D01*
X130241852Y-62938867D01*
X130300330Y-62950499D01*
X130300334Y-62950500D01*
X130300335Y-62950500D01*
X130507266Y-62950500D01*
X130507267Y-62950499D01*
X130710220Y-62910130D01*
X130901398Y-62830941D01*
X131073455Y-62715977D01*
X131219777Y-62569655D01*
X131334741Y-62397598D01*
X131413930Y-62206420D01*
X131454300Y-62003465D01*
X131454300Y-61796535D01*
X131413930Y-61593580D01*
X131337879Y-61409979D01*
X131330411Y-61340512D01*
X131361686Y-61278032D01*
X131421775Y-61242380D01*
X131491600Y-61244873D01*
X131540122Y-61274847D01*
X131874390Y-61609115D01*
X131907875Y-61670438D01*
X131908327Y-61720986D01*
X131893300Y-61796536D01*
X131893300Y-62003469D01*
X131933668Y-62206412D01*
X131933670Y-62206420D01*
X132012858Y-62397596D01*
X132127824Y-62569657D01*
X132274142Y-62715975D01*
X132274145Y-62715977D01*
X132446202Y-62830941D01*
X132637380Y-62910130D01*
X132781852Y-62938867D01*
X132840330Y-62950499D01*
X132840334Y-62950500D01*
X132840335Y-62950500D01*
X133047266Y-62950500D01*
X133047267Y-62950499D01*
X133250220Y-62910130D01*
X133441398Y-62830941D01*
X133613455Y-62715977D01*
X133759777Y-62569655D01*
X133874741Y-62397598D01*
X133953930Y-62206420D01*
X133994300Y-62003465D01*
X133994300Y-61796535D01*
X133953930Y-61593580D01*
X133874741Y-61402402D01*
X133759777Y-61230345D01*
X133759775Y-61230342D01*
X133613457Y-61084024D01*
X133445455Y-60971770D01*
X133441398Y-60969059D01*
X133433817Y-60965919D01*
X133250220Y-60889870D01*
X133250212Y-60889868D01*
X133047269Y-60849500D01*
X133047265Y-60849500D01*
X132840335Y-60849500D01*
X132805946Y-60856340D01*
X132764786Y-60864527D01*
X132695194Y-60858298D01*
X132652915Y-60830590D01*
X122969416Y-51147091D01*
X122969415Y-51147090D01*
X122843885Y-51074616D01*
X122843886Y-51074616D01*
X122808882Y-51065237D01*
X122703875Y-51037100D01*
X122703872Y-51037100D01*
X116546987Y-51037100D01*
X116479948Y-51017415D01*
X116459306Y-51000781D01*
X115364847Y-49906322D01*
X115331362Y-49844999D01*
X115336346Y-49775307D01*
X115378218Y-49719374D01*
X115443682Y-49694957D01*
X115499979Y-49704079D01*
X115683580Y-49780130D01*
X115881945Y-49819587D01*
X115886530Y-49820499D01*
X115886534Y-49820500D01*
X115886535Y-49820500D01*
X116093466Y-49820500D01*
X116093467Y-49820499D01*
X116296420Y-49780130D01*
X116487598Y-49700941D01*
X116659655Y-49585977D01*
X116805977Y-49439655D01*
X116920941Y-49267598D01*
X117000130Y-49076420D01*
X117040500Y-48873465D01*
X117040500Y-48666535D01*
X117000130Y-48463580D01*
X116920941Y-48272402D01*
X116920940Y-48272400D01*
X116920940Y-48272399D01*
X116814026Y-48112390D01*
X116793148Y-48045713D01*
X116811633Y-47978333D01*
X116863612Y-47931643D01*
X116917128Y-47919500D01*
X120142872Y-47919500D01*
X120209911Y-47939185D01*
X120255666Y-47991989D01*
X120265610Y-48061147D01*
X120245974Y-48112390D01*
X120139059Y-48272399D01*
X120139059Y-48272400D01*
X120059870Y-48463579D01*
X120059868Y-48463587D01*
X120019500Y-48666530D01*
X120019500Y-48873469D01*
X120059868Y-49076412D01*
X120059870Y-49076420D01*
X120139058Y-49267596D01*
X120254024Y-49439657D01*
X120400342Y-49585975D01*
X120400345Y-49585977D01*
X120572402Y-49700941D01*
X120763580Y-49780130D01*
X120961945Y-49819587D01*
X120966530Y-49820499D01*
X120966534Y-49820500D01*
X120966535Y-49820500D01*
X121173466Y-49820500D01*
X121173467Y-49820499D01*
X121376420Y-49780130D01*
X121567598Y-49700941D01*
X121739655Y-49585977D01*
X121885977Y-49439655D01*
X122000941Y-49267598D01*
X122080130Y-49076420D01*
X122120500Y-48873465D01*
X122120500Y-48666535D01*
X122080130Y-48463580D01*
X122000941Y-48272402D01*
X122000940Y-48272400D01*
X122000940Y-48272399D01*
X121894026Y-48112390D01*
X121873148Y-48045713D01*
X121891633Y-47978333D01*
X121943612Y-47931643D01*
X121997128Y-47919500D01*
X122682872Y-47919500D01*
X122749911Y-47939185D01*
X122795666Y-47991989D01*
X122805610Y-48061147D01*
X122785974Y-48112390D01*
X122679059Y-48272399D01*
X122679059Y-48272400D01*
X122599870Y-48463579D01*
X122599868Y-48463587D01*
X122559500Y-48666530D01*
X122559500Y-48873469D01*
X122599868Y-49076412D01*
X122599870Y-49076420D01*
X122679058Y-49267596D01*
X122794024Y-49439657D01*
X122940342Y-49585975D01*
X122940345Y-49585977D01*
X123112402Y-49700941D01*
X123303580Y-49780130D01*
X123501945Y-49819587D01*
X123506530Y-49820499D01*
X123506534Y-49820500D01*
X123506535Y-49820500D01*
X123713466Y-49820500D01*
X123713467Y-49820499D01*
X123916420Y-49780130D01*
X124107598Y-49700941D01*
X124279655Y-49585977D01*
X124425977Y-49439655D01*
X124540941Y-49267598D01*
X124620130Y-49076420D01*
X124660500Y-48873465D01*
X124660500Y-48666535D01*
X124620130Y-48463580D01*
X124540941Y-48272402D01*
X124540940Y-48272400D01*
X124540940Y-48272399D01*
X124434026Y-48112390D01*
X124413148Y-48045713D01*
X124431633Y-47978333D01*
X124483612Y-47931643D01*
X124537128Y-47919500D01*
X125222872Y-47919500D01*
X125289911Y-47939185D01*
X125335666Y-47991989D01*
X125345610Y-48061147D01*
X125325974Y-48112390D01*
X125219059Y-48272399D01*
X125219059Y-48272400D01*
X125139870Y-48463579D01*
X125139868Y-48463587D01*
X125099500Y-48666530D01*
X125099500Y-48873469D01*
X125139868Y-49076412D01*
X125139870Y-49076420D01*
X125219058Y-49267596D01*
X125334024Y-49439657D01*
X125480342Y-49585975D01*
X125480345Y-49585977D01*
X125652402Y-49700941D01*
X125843580Y-49780130D01*
X126041945Y-49819587D01*
X126046530Y-49820499D01*
X126046534Y-49820500D01*
X126046535Y-49820500D01*
X126253466Y-49820500D01*
X126253467Y-49820499D01*
X126456420Y-49780130D01*
X126647598Y-49700941D01*
X126819655Y-49585977D01*
X126965977Y-49439655D01*
X127080941Y-49267598D01*
X127160130Y-49076420D01*
X127200500Y-48873465D01*
X127200500Y-48666535D01*
X127160130Y-48463580D01*
X127080941Y-48272402D01*
X127080940Y-48272400D01*
X127080940Y-48272399D01*
X126974026Y-48112390D01*
X126970989Y-48102691D01*
X126964334Y-48095011D01*
X126960724Y-48069911D01*
X126953148Y-48045713D01*
X126955836Y-48035913D01*
X126954390Y-48025853D01*
X126964924Y-48002784D01*
X126971633Y-47978333D01*
X126979192Y-47971542D01*
X126983415Y-47962297D01*
X127004749Y-47948586D01*
X127023612Y-47931643D01*
X127035208Y-47929011D01*
X127042193Y-47924523D01*
X127077128Y-47919500D01*
X127221745Y-47919500D01*
X127288784Y-47939185D01*
X127309426Y-47955819D01*
X127661502Y-48307895D01*
X127694987Y-48369218D01*
X127690003Y-48438910D01*
X127688384Y-48443025D01*
X127679871Y-48463579D01*
X127679869Y-48463583D01*
X127679867Y-48463587D01*
X127639500Y-48666530D01*
X127639500Y-48873469D01*
X127679868Y-49076412D01*
X127679870Y-49076420D01*
X127759058Y-49267596D01*
X127874024Y-49439657D01*
X128020342Y-49585975D01*
X128020345Y-49585977D01*
X128192402Y-49700941D01*
X128383580Y-49780130D01*
X128581945Y-49819587D01*
X128586530Y-49820499D01*
X128586534Y-49820500D01*
X128586535Y-49820500D01*
X128793466Y-49820500D01*
X128793467Y-49820499D01*
X128996420Y-49780130D01*
X129187598Y-49700941D01*
X129359655Y-49585977D01*
X129505977Y-49439655D01*
X129620941Y-49267598D01*
X129700130Y-49076420D01*
X129740500Y-48873465D01*
X129740500Y-48666535D01*
X129700130Y-48463580D01*
X129620941Y-48272402D01*
X129505977Y-48100345D01*
X129505975Y-48100342D01*
X129359657Y-47954024D01*
X129273396Y-47896387D01*
X129187598Y-47839059D01*
X129096872Y-47801479D01*
X128996420Y-47759870D01*
X128996412Y-47759868D01*
X128793469Y-47719500D01*
X128793465Y-47719500D01*
X128586535Y-47719500D01*
X128586530Y-47719500D01*
X128383587Y-47759867D01*
X128383583Y-47759869D01*
X128383581Y-47759869D01*
X128383580Y-47759870D01*
X128368786Y-47765997D01*
X128363025Y-47768384D01*
X128293555Y-47775850D01*
X128231077Y-47744573D01*
X128227895Y-47741502D01*
X127684915Y-47198522D01*
X127684913Y-47198520D01*
X127619825Y-47160941D01*
X127593589Y-47145793D01*
X127542657Y-47132146D01*
X127491727Y-47118500D01*
X127491726Y-47118500D01*
X127046495Y-47118500D01*
X126979456Y-47098815D01*
X126933701Y-47046011D01*
X126923757Y-46976853D01*
X126952782Y-46913297D01*
X126958814Y-46906819D01*
X126965974Y-46899658D01*
X126965975Y-46899657D01*
X126965977Y-46899655D01*
X127080941Y-46727598D01*
X127160130Y-46536420D01*
X127200500Y-46333465D01*
X127200500Y-46126535D01*
X127200499Y-46126530D01*
X127639500Y-46126530D01*
X127639500Y-46333469D01*
X127679868Y-46536412D01*
X127679870Y-46536420D01*
X127759058Y-46727596D01*
X127874024Y-46899657D01*
X128020342Y-47045975D01*
X128020345Y-47045977D01*
X128192402Y-47160941D01*
X128383580Y-47240130D01*
X128586530Y-47280499D01*
X128586534Y-47280500D01*
X128586535Y-47280500D01*
X128793466Y-47280500D01*
X128793467Y-47280499D01*
X128996420Y-47240130D01*
X129016967Y-47231618D01*
X129086435Y-47224147D01*
X129148915Y-47255420D01*
X129152104Y-47258497D01*
X129695087Y-47801480D01*
X129786412Y-47854207D01*
X129888273Y-47881500D01*
X130333505Y-47881500D01*
X130400544Y-47901185D01*
X130446299Y-47953989D01*
X130456243Y-48023147D01*
X130427218Y-48086703D01*
X130421186Y-48093181D01*
X130414025Y-48100341D01*
X130414024Y-48100342D01*
X130299058Y-48272403D01*
X130219870Y-48463579D01*
X130219868Y-48463587D01*
X130179500Y-48666530D01*
X130179500Y-48873469D01*
X130219868Y-49076412D01*
X130219870Y-49076420D01*
X130299058Y-49267596D01*
X130414024Y-49439657D01*
X130560342Y-49585975D01*
X130560345Y-49585977D01*
X130732402Y-49700941D01*
X130752952Y-49709453D01*
X130807356Y-49753293D01*
X130829421Y-49819587D01*
X130829500Y-49824014D01*
X130829500Y-55002673D01*
X130829500Y-55108127D01*
X130834573Y-55127059D01*
X130856793Y-55209989D01*
X130875289Y-55242024D01*
X130909520Y-55301313D01*
X137415864Y-61807657D01*
X143904102Y-68295894D01*
X143937587Y-68357217D01*
X143932603Y-68426909D01*
X143930984Y-68431022D01*
X143922471Y-68451575D01*
X143922467Y-68451587D01*
X143882100Y-68654530D01*
X143882100Y-68861469D01*
X143922468Y-69064412D01*
X143922470Y-69064420D01*
X144001658Y-69255596D01*
X144116624Y-69427657D01*
X144262942Y-69573975D01*
X144262945Y-69573977D01*
X144435002Y-69688941D01*
X144626180Y-69768130D01*
X144829130Y-69808499D01*
X144829134Y-69808500D01*
X144829135Y-69808500D01*
X145036066Y-69808500D01*
X145036067Y-69808499D01*
X145239020Y-69768130D01*
X145430198Y-69688941D01*
X145602255Y-69573977D01*
X145748577Y-69427655D01*
X145863541Y-69255598D01*
X145942730Y-69064420D01*
X145983100Y-68861465D01*
X145983100Y-68654535D01*
X145942730Y-68451580D01*
X145863541Y-68260402D01*
X145748577Y-68088345D01*
X145748575Y-68088342D01*
X145602257Y-67942024D01*
X145516226Y-67884541D01*
X145430198Y-67827059D01*
X145259574Y-67756384D01*
X145239020Y-67747870D01*
X145239012Y-67747868D01*
X145036069Y-67707500D01*
X145036065Y-67707500D01*
X144829135Y-67707500D01*
X144829130Y-67707500D01*
X144626187Y-67747867D01*
X144626175Y-67747871D01*
X144605622Y-67756384D01*
X144536152Y-67763850D01*
X144473675Y-67732572D01*
X144470494Y-67729502D01*
X131666819Y-54925826D01*
X131633334Y-54864503D01*
X131630500Y-54838145D01*
X131630500Y-49824014D01*
X131650185Y-49756975D01*
X131688543Y-49719011D01*
X131697391Y-49713452D01*
X131727598Y-49700941D01*
X131889053Y-49593060D01*
X131890543Y-49592125D01*
X131922554Y-49583084D01*
X131954287Y-49573148D01*
X131956036Y-49573627D01*
X131957782Y-49573135D01*
X131989598Y-49582835D01*
X132021667Y-49591633D01*
X132022878Y-49592981D01*
X132024614Y-49593511D01*
X132046140Y-49618879D01*
X132068357Y-49643612D01*
X132068805Y-49645588D01*
X132069821Y-49646785D01*
X132070879Y-49654728D01*
X132080500Y-49697128D01*
X132080500Y-53713673D01*
X132080500Y-53819127D01*
X132107793Y-53920988D01*
X132160520Y-54012313D01*
X132160521Y-54012314D01*
X132160522Y-54012315D01*
X143904102Y-65755894D01*
X143937587Y-65817217D01*
X143932603Y-65886909D01*
X143930984Y-65891022D01*
X143922471Y-65911575D01*
X143922467Y-65911587D01*
X143882100Y-66114530D01*
X143882100Y-66321469D01*
X143922468Y-66524412D01*
X143922470Y-66524420D01*
X144001658Y-66715596D01*
X144116624Y-66887657D01*
X144262942Y-67033975D01*
X144262945Y-67033977D01*
X144435002Y-67148941D01*
X144626180Y-67228130D01*
X144829130Y-67268499D01*
X144829134Y-67268500D01*
X144829135Y-67268500D01*
X145036066Y-67268500D01*
X145036067Y-67268499D01*
X145239020Y-67228130D01*
X145430198Y-67148941D01*
X145602255Y-67033977D01*
X145748577Y-66887655D01*
X145863541Y-66715598D01*
X145942730Y-66524420D01*
X145983100Y-66321465D01*
X145983100Y-66114535D01*
X145942730Y-65911580D01*
X145863541Y-65720402D01*
X145748577Y-65548345D01*
X145748575Y-65548342D01*
X145602257Y-65402024D01*
X145516226Y-65344541D01*
X145430198Y-65287059D01*
X145259574Y-65216384D01*
X145239020Y-65207870D01*
X145239012Y-65207868D01*
X145036069Y-65167500D01*
X145036065Y-65167500D01*
X144829135Y-65167500D01*
X144829130Y-65167500D01*
X144626187Y-65207867D01*
X144626175Y-65207871D01*
X144605622Y-65216384D01*
X144536152Y-65223850D01*
X144473675Y-65192572D01*
X144470494Y-65189502D01*
X132917819Y-53636826D01*
X132884334Y-53575503D01*
X132881500Y-53549145D01*
X132881500Y-49666495D01*
X132901185Y-49599456D01*
X132953989Y-49553701D01*
X133023147Y-49543757D01*
X133086703Y-49572782D01*
X133093181Y-49578814D01*
X133100342Y-49585975D01*
X133100345Y-49585977D01*
X133272402Y-49700941D01*
X133463580Y-49780130D01*
X133661945Y-49819587D01*
X133666530Y-49820499D01*
X133666534Y-49820500D01*
X133666535Y-49820500D01*
X133873466Y-49820500D01*
X133873467Y-49820499D01*
X134076420Y-49780130D01*
X134267598Y-49700941D01*
X134267599Y-49700940D01*
X134267600Y-49700940D01*
X134427610Y-49594026D01*
X134494287Y-49573148D01*
X134561667Y-49591633D01*
X134608357Y-49643612D01*
X134620500Y-49697128D01*
X134620500Y-53713673D01*
X134620500Y-53819127D01*
X134647793Y-53920988D01*
X134700520Y-54012313D01*
X134700522Y-54012315D01*
X143904102Y-63215895D01*
X143937587Y-63277218D01*
X143932603Y-63346910D01*
X143930984Y-63351025D01*
X143922471Y-63371579D01*
X143922469Y-63371583D01*
X143922467Y-63371587D01*
X143882100Y-63574530D01*
X143882100Y-63781469D01*
X143922468Y-63984412D01*
X143922470Y-63984420D01*
X144001658Y-64175596D01*
X144116624Y-64347657D01*
X144262942Y-64493975D01*
X144262945Y-64493977D01*
X144435002Y-64608941D01*
X144626180Y-64688130D01*
X144829130Y-64728499D01*
X144829134Y-64728500D01*
X144829135Y-64728500D01*
X145036066Y-64728500D01*
X145036067Y-64728499D01*
X145239020Y-64688130D01*
X145430198Y-64608941D01*
X145602255Y-64493977D01*
X145748577Y-64347655D01*
X145863541Y-64175598D01*
X145942730Y-63984420D01*
X145983100Y-63781465D01*
X145983100Y-63574535D01*
X145942730Y-63371580D01*
X145863541Y-63180402D01*
X145748577Y-63008345D01*
X145748575Y-63008342D01*
X145602257Y-62862024D01*
X145516226Y-62804541D01*
X145430198Y-62747059D01*
X145259574Y-62676384D01*
X145239020Y-62667870D01*
X145239012Y-62667868D01*
X145036069Y-62627500D01*
X145036065Y-62627500D01*
X144829135Y-62627500D01*
X144829130Y-62627500D01*
X144626187Y-62667867D01*
X144626183Y-62667869D01*
X144626181Y-62667869D01*
X144626180Y-62667870D01*
X144611386Y-62673997D01*
X144605625Y-62676384D01*
X144536155Y-62683850D01*
X144473677Y-62652573D01*
X144470495Y-62649502D01*
X135457819Y-53636826D01*
X135424334Y-53575503D01*
X135421500Y-53549145D01*
X135421500Y-49666495D01*
X135441185Y-49599456D01*
X135493989Y-49553701D01*
X135563147Y-49543757D01*
X135626703Y-49572782D01*
X135633181Y-49578814D01*
X135640342Y-49585975D01*
X135640345Y-49585977D01*
X135812402Y-49700941D01*
X136003580Y-49780130D01*
X136201945Y-49819587D01*
X136206530Y-49820499D01*
X136206534Y-49820500D01*
X136206535Y-49820500D01*
X136413466Y-49820500D01*
X136413467Y-49820499D01*
X136616420Y-49780130D01*
X136807598Y-49700941D01*
X136979655Y-49585977D01*
X137125977Y-49439655D01*
X137240941Y-49267598D01*
X137320130Y-49076420D01*
X137360500Y-48873465D01*
X137360500Y-48666535D01*
X137320130Y-48463580D01*
X137240941Y-48272402D01*
X137125977Y-48100345D01*
X137125975Y-48100342D01*
X136979657Y-47954024D01*
X136893396Y-47896387D01*
X136807598Y-47839059D01*
X136716872Y-47801479D01*
X136616420Y-47759870D01*
X136616412Y-47759868D01*
X136413469Y-47719500D01*
X136413465Y-47719500D01*
X136206535Y-47719500D01*
X136206530Y-47719500D01*
X136003587Y-47759868D01*
X136003579Y-47759870D01*
X135812403Y-47839058D01*
X135640342Y-47954024D01*
X135640341Y-47954025D01*
X135633181Y-47961186D01*
X135571858Y-47994671D01*
X135502166Y-47989687D01*
X135446233Y-47947815D01*
X135421816Y-47882351D01*
X135421500Y-47873505D01*
X135421500Y-47428275D01*
X135421500Y-47428273D01*
X135394207Y-47326413D01*
X135394207Y-47326412D01*
X135341480Y-47235087D01*
X134798497Y-46692104D01*
X134765012Y-46630781D01*
X134769996Y-46561089D01*
X134771619Y-46556966D01*
X134780128Y-46536424D01*
X134780130Y-46536420D01*
X134820500Y-46333465D01*
X134820500Y-46126535D01*
X134820499Y-46126530D01*
X135259500Y-46126530D01*
X135259500Y-46333469D01*
X135299868Y-46536412D01*
X135299870Y-46536420D01*
X135379058Y-46727596D01*
X135494024Y-46899657D01*
X135640342Y-47045975D01*
X135640345Y-47045977D01*
X135812402Y-47160941D01*
X136003580Y-47240130D01*
X136206530Y-47280499D01*
X136206534Y-47280500D01*
X136206535Y-47280500D01*
X136413466Y-47280500D01*
X136413467Y-47280499D01*
X136616420Y-47240130D01*
X136807598Y-47160941D01*
X136979655Y-47045977D01*
X137125977Y-46899655D01*
X137240941Y-46727598D01*
X137320130Y-46536420D01*
X137360500Y-46333465D01*
X137360500Y-46126535D01*
X137360499Y-46126530D01*
X137799500Y-46126530D01*
X137799500Y-46333469D01*
X137839868Y-46536412D01*
X137839870Y-46536420D01*
X137919058Y-46727596D01*
X138034024Y-46899657D01*
X138180342Y-47045975D01*
X138180345Y-47045977D01*
X138352402Y-47160941D01*
X138543580Y-47240130D01*
X138746530Y-47280499D01*
X138746534Y-47280500D01*
X138746535Y-47280500D01*
X138953466Y-47280500D01*
X138953467Y-47280499D01*
X139156420Y-47240130D01*
X139176967Y-47231618D01*
X139246435Y-47224147D01*
X139308915Y-47255420D01*
X139312104Y-47258497D01*
X139702181Y-47648574D01*
X139735666Y-47709897D01*
X139738500Y-47736255D01*
X139738500Y-56397126D01*
X139765793Y-56498989D01*
X139792156Y-56544650D01*
X139818520Y-56590313D01*
X139818522Y-56590315D01*
X143904102Y-60675895D01*
X143937587Y-60737218D01*
X143932603Y-60806910D01*
X143930984Y-60811025D01*
X143922471Y-60831579D01*
X143922469Y-60831583D01*
X143922467Y-60831587D01*
X143882100Y-61034530D01*
X143882100Y-61241469D01*
X143922468Y-61444412D01*
X143922470Y-61444420D01*
X144001658Y-61635596D01*
X144116624Y-61807657D01*
X144262942Y-61953975D01*
X144262945Y-61953977D01*
X144435002Y-62068941D01*
X144626180Y-62148130D01*
X144829130Y-62188499D01*
X144829134Y-62188500D01*
X144829135Y-62188500D01*
X145036066Y-62188500D01*
X145036067Y-62188499D01*
X145239020Y-62148130D01*
X145430198Y-62068941D01*
X145602255Y-61953977D01*
X145748577Y-61807655D01*
X145863541Y-61635598D01*
X145942730Y-61444420D01*
X145983100Y-61241465D01*
X145983100Y-61034535D01*
X145942730Y-60831580D01*
X145863541Y-60640402D01*
X145748577Y-60468345D01*
X145748575Y-60468342D01*
X145602257Y-60322024D01*
X145516226Y-60264541D01*
X145430198Y-60207059D01*
X145259574Y-60136384D01*
X145239020Y-60127870D01*
X145239012Y-60127868D01*
X145036069Y-60087500D01*
X145036065Y-60087500D01*
X144829135Y-60087500D01*
X144829130Y-60087500D01*
X144626187Y-60127867D01*
X144626183Y-60127869D01*
X144626181Y-60127869D01*
X144626180Y-60127870D01*
X144611386Y-60133997D01*
X144605625Y-60136384D01*
X144536155Y-60143850D01*
X144473677Y-60112573D01*
X144470495Y-60109502D01*
X140575819Y-56214826D01*
X140561115Y-56187898D01*
X140544523Y-56162080D01*
X140543631Y-56155879D01*
X140542334Y-56153503D01*
X140539500Y-56127145D01*
X140539500Y-55954530D01*
X143882100Y-55954530D01*
X143882100Y-56161469D01*
X143922468Y-56364412D01*
X143922470Y-56364420D01*
X144001658Y-56555596D01*
X144116624Y-56727657D01*
X144262942Y-56873975D01*
X144262945Y-56873977D01*
X144435002Y-56988941D01*
X144626180Y-57068130D01*
X144829130Y-57108499D01*
X144829134Y-57108500D01*
X144829135Y-57108500D01*
X145036066Y-57108500D01*
X145036067Y-57108499D01*
X145239020Y-57068130D01*
X145430198Y-56988941D01*
X145602255Y-56873977D01*
X145748577Y-56727655D01*
X145863541Y-56555598D01*
X145942730Y-56364420D01*
X145983100Y-56161465D01*
X145983100Y-55954535D01*
X145942730Y-55751580D01*
X145863541Y-55560402D01*
X145748577Y-55388345D01*
X145748575Y-55388342D01*
X145602257Y-55242024D01*
X145516226Y-55184541D01*
X145430198Y-55127059D01*
X145384492Y-55108127D01*
X145239020Y-55047870D01*
X145239012Y-55047868D01*
X145036069Y-55007500D01*
X145036065Y-55007500D01*
X144829135Y-55007500D01*
X144829130Y-55007500D01*
X144626187Y-55047868D01*
X144626179Y-55047870D01*
X144435003Y-55127058D01*
X144262942Y-55242024D01*
X144116624Y-55388342D01*
X144001658Y-55560403D01*
X143922470Y-55751579D01*
X143922468Y-55751587D01*
X143882100Y-55954530D01*
X140539500Y-55954530D01*
X140539500Y-49697128D01*
X140559185Y-49630089D01*
X140611989Y-49584334D01*
X140681147Y-49574390D01*
X140732390Y-49594026D01*
X140892400Y-49700940D01*
X140892401Y-49700940D01*
X140892402Y-49700941D01*
X141083580Y-49780130D01*
X141281945Y-49819587D01*
X141286530Y-49820499D01*
X141286534Y-49820500D01*
X141286535Y-49820500D01*
X141493466Y-49820500D01*
X141493467Y-49820499D01*
X141696420Y-49780130D01*
X141887598Y-49700941D01*
X142059655Y-49585977D01*
X142205977Y-49439655D01*
X142320941Y-49267598D01*
X142400130Y-49076420D01*
X142440500Y-48873465D01*
X142440500Y-48666535D01*
X142440499Y-48666530D01*
X142879500Y-48666530D01*
X142879500Y-48873469D01*
X142919868Y-49076412D01*
X142919870Y-49076420D01*
X142999058Y-49267596D01*
X143114024Y-49439657D01*
X143260342Y-49585975D01*
X143260345Y-49585977D01*
X143432402Y-49700941D01*
X143623580Y-49780130D01*
X143821945Y-49819587D01*
X143826530Y-49820499D01*
X143826534Y-49820500D01*
X143826535Y-49820500D01*
X144033466Y-49820500D01*
X144033467Y-49820499D01*
X144236420Y-49780130D01*
X144427598Y-49700941D01*
X144599655Y-49585977D01*
X144745977Y-49439655D01*
X144860941Y-49267598D01*
X144940130Y-49076420D01*
X144980500Y-48873465D01*
X144980500Y-48666535D01*
X144980499Y-48666530D01*
X145419500Y-48666530D01*
X145419500Y-48873469D01*
X145459868Y-49076412D01*
X145459870Y-49076420D01*
X145539058Y-49267596D01*
X145654024Y-49439657D01*
X145800342Y-49585975D01*
X145800345Y-49585977D01*
X145972402Y-49700941D01*
X146163580Y-49780130D01*
X146361945Y-49819587D01*
X146366530Y-49820499D01*
X146366534Y-49820500D01*
X146366535Y-49820500D01*
X146573466Y-49820500D01*
X146573467Y-49820499D01*
X146776420Y-49780130D01*
X146967598Y-49700941D01*
X147139655Y-49585977D01*
X147285977Y-49439655D01*
X147400941Y-49267598D01*
X147480130Y-49076420D01*
X147520500Y-48873465D01*
X147520500Y-48666535D01*
X147520499Y-48666530D01*
X147959500Y-48666530D01*
X147959500Y-48873469D01*
X147999868Y-49076412D01*
X147999870Y-49076420D01*
X148079058Y-49267596D01*
X148194024Y-49439657D01*
X148340342Y-49585975D01*
X148340345Y-49585977D01*
X148512402Y-49700941D01*
X148703580Y-49780130D01*
X148901945Y-49819587D01*
X148906530Y-49820499D01*
X148906534Y-49820500D01*
X148906535Y-49820500D01*
X149113466Y-49820500D01*
X149113467Y-49820499D01*
X149316420Y-49780130D01*
X149507598Y-49700941D01*
X149679655Y-49585977D01*
X149825977Y-49439655D01*
X149940941Y-49267598D01*
X150020130Y-49076420D01*
X150060500Y-48873465D01*
X150060500Y-48666535D01*
X150060499Y-48666530D01*
X150499500Y-48666530D01*
X150499500Y-48873469D01*
X150539868Y-49076412D01*
X150539870Y-49076420D01*
X150619058Y-49267596D01*
X150734024Y-49439657D01*
X150880342Y-49585975D01*
X150880345Y-49585977D01*
X151052402Y-49700941D01*
X151243580Y-49780130D01*
X151441945Y-49819587D01*
X151446530Y-49820499D01*
X151446534Y-49820500D01*
X151446535Y-49820500D01*
X151653466Y-49820500D01*
X151653467Y-49820499D01*
X151856420Y-49780130D01*
X152047598Y-49700941D01*
X152219655Y-49585977D01*
X152365977Y-49439655D01*
X152480941Y-49267598D01*
X152560130Y-49076420D01*
X152600500Y-48873465D01*
X152600500Y-48666535D01*
X152600499Y-48666530D01*
X153039500Y-48666530D01*
X153039500Y-48873469D01*
X153079868Y-49076412D01*
X153079870Y-49076420D01*
X153159058Y-49267596D01*
X153274024Y-49439657D01*
X153420342Y-49585975D01*
X153420345Y-49585977D01*
X153592402Y-49700941D01*
X153783580Y-49780130D01*
X153981945Y-49819587D01*
X153986530Y-49820499D01*
X153986534Y-49820500D01*
X153986535Y-49820500D01*
X154193466Y-49820500D01*
X154193467Y-49820499D01*
X154396420Y-49780130D01*
X154587598Y-49700941D01*
X154759655Y-49585977D01*
X154905977Y-49439655D01*
X155020941Y-49267598D01*
X155100130Y-49076420D01*
X155140500Y-48873465D01*
X155140500Y-48666535D01*
X155100130Y-48463580D01*
X155020941Y-48272402D01*
X154905977Y-48100345D01*
X154905975Y-48100342D01*
X154759657Y-47954024D01*
X154673396Y-47896387D01*
X154587598Y-47839059D01*
X154496872Y-47801479D01*
X154396420Y-47759870D01*
X154396412Y-47759868D01*
X154193469Y-47719500D01*
X154193465Y-47719500D01*
X153986535Y-47719500D01*
X153986530Y-47719500D01*
X153783587Y-47759868D01*
X153783579Y-47759870D01*
X153592403Y-47839058D01*
X153420342Y-47954024D01*
X153274024Y-48100342D01*
X153159058Y-48272403D01*
X153079870Y-48463579D01*
X153079868Y-48463587D01*
X153039500Y-48666530D01*
X152600499Y-48666530D01*
X152560130Y-48463580D01*
X152480941Y-48272402D01*
X152365977Y-48100345D01*
X152365975Y-48100342D01*
X152219657Y-47954024D01*
X152133396Y-47896387D01*
X152047598Y-47839059D01*
X151956872Y-47801479D01*
X151856420Y-47759870D01*
X151856412Y-47759868D01*
X151653469Y-47719500D01*
X151653465Y-47719500D01*
X151446535Y-47719500D01*
X151446530Y-47719500D01*
X151243587Y-47759868D01*
X151243579Y-47759870D01*
X151052403Y-47839058D01*
X150880342Y-47954024D01*
X150734024Y-48100342D01*
X150619058Y-48272403D01*
X150539870Y-48463579D01*
X150539868Y-48463587D01*
X150499500Y-48666530D01*
X150060499Y-48666530D01*
X150020130Y-48463580D01*
X149940941Y-48272402D01*
X149825977Y-48100345D01*
X149825975Y-48100342D01*
X149679657Y-47954024D01*
X149593396Y-47896387D01*
X149507598Y-47839059D01*
X149416872Y-47801479D01*
X149316420Y-47759870D01*
X149316412Y-47759868D01*
X149113469Y-47719500D01*
X149113465Y-47719500D01*
X148906535Y-47719500D01*
X148906530Y-47719500D01*
X148703587Y-47759868D01*
X148703579Y-47759870D01*
X148512403Y-47839058D01*
X148340342Y-47954024D01*
X148194024Y-48100342D01*
X148079058Y-48272403D01*
X147999870Y-48463579D01*
X147999868Y-48463587D01*
X147959500Y-48666530D01*
X147520499Y-48666530D01*
X147480130Y-48463580D01*
X147400941Y-48272402D01*
X147285977Y-48100345D01*
X147285975Y-48100342D01*
X147139657Y-47954024D01*
X147053396Y-47896387D01*
X146967598Y-47839059D01*
X146876872Y-47801479D01*
X146776420Y-47759870D01*
X146776412Y-47759868D01*
X146573469Y-47719500D01*
X146573465Y-47719500D01*
X146366535Y-47719500D01*
X146366530Y-47719500D01*
X146163587Y-47759868D01*
X146163579Y-47759870D01*
X145972403Y-47839058D01*
X145800342Y-47954024D01*
X145654024Y-48100342D01*
X145539058Y-48272403D01*
X145459870Y-48463579D01*
X145459868Y-48463587D01*
X145419500Y-48666530D01*
X144980499Y-48666530D01*
X144940130Y-48463580D01*
X144860941Y-48272402D01*
X144745977Y-48100345D01*
X144745975Y-48100342D01*
X144599657Y-47954024D01*
X144513396Y-47896387D01*
X144427598Y-47839059D01*
X144336872Y-47801479D01*
X144236420Y-47759870D01*
X144236412Y-47759868D01*
X144033469Y-47719500D01*
X144033465Y-47719500D01*
X143826535Y-47719500D01*
X143826530Y-47719500D01*
X143623587Y-47759868D01*
X143623579Y-47759870D01*
X143432403Y-47839058D01*
X143260342Y-47954024D01*
X143114024Y-48100342D01*
X142999058Y-48272403D01*
X142919870Y-48463579D01*
X142919868Y-48463587D01*
X142879500Y-48666530D01*
X142440499Y-48666530D01*
X142400130Y-48463580D01*
X142320941Y-48272402D01*
X142205977Y-48100345D01*
X142205975Y-48100342D01*
X142059657Y-47954024D01*
X141973396Y-47896387D01*
X141887598Y-47839059D01*
X141796872Y-47801479D01*
X141696420Y-47759870D01*
X141696412Y-47759868D01*
X141493469Y-47719500D01*
X141493465Y-47719500D01*
X141286535Y-47719500D01*
X141286530Y-47719500D01*
X141083587Y-47759868D01*
X141083579Y-47759870D01*
X140892403Y-47839058D01*
X140732390Y-47945974D01*
X140665712Y-47966851D01*
X140598332Y-47948366D01*
X140551643Y-47896387D01*
X140539500Y-47842871D01*
X140539500Y-47466275D01*
X140539500Y-47466273D01*
X140520058Y-47393713D01*
X160149500Y-47393713D01*
X160149500Y-47606286D01*
X160180415Y-47801480D01*
X160182754Y-47816243D01*
X160245935Y-48010694D01*
X160248444Y-48018414D01*
X160344951Y-48207820D01*
X160469890Y-48379786D01*
X160620213Y-48530109D01*
X160792179Y-48655048D01*
X160792181Y-48655049D01*
X160792184Y-48655051D01*
X160981588Y-48751557D01*
X161183757Y-48817246D01*
X161393713Y-48850500D01*
X161393714Y-48850500D01*
X161606286Y-48850500D01*
X161606287Y-48850500D01*
X161816243Y-48817246D01*
X162018412Y-48751557D01*
X162207816Y-48655051D01*
X162229789Y-48639086D01*
X162379786Y-48530109D01*
X162379788Y-48530106D01*
X162379792Y-48530104D01*
X162530104Y-48379792D01*
X162530106Y-48379788D01*
X162530109Y-48379786D01*
X162655048Y-48207820D01*
X162655047Y-48207820D01*
X162655051Y-48207816D01*
X162751557Y-48018412D01*
X162817246Y-47816243D01*
X162850500Y-47606287D01*
X162850500Y-47393713D01*
X162817246Y-47183757D01*
X162751557Y-46981588D01*
X162655051Y-46792184D01*
X162655049Y-46792181D01*
X162655048Y-46792179D01*
X162530109Y-46620213D01*
X162379786Y-46469890D01*
X162207820Y-46344951D01*
X162018414Y-46248444D01*
X162018413Y-46248443D01*
X162018412Y-46248443D01*
X161816243Y-46182754D01*
X161816241Y-46182753D01*
X161816240Y-46182753D01*
X161654957Y-46157208D01*
X161606287Y-46149500D01*
X161393713Y-46149500D01*
X161345042Y-46157208D01*
X161183760Y-46182753D01*
X160981585Y-46248444D01*
X160792179Y-46344951D01*
X160620213Y-46469890D01*
X160469890Y-46620213D01*
X160344951Y-46792179D01*
X160248444Y-46981585D01*
X160182753Y-47183760D01*
X160149500Y-47393713D01*
X140520058Y-47393713D01*
X140512207Y-47364413D01*
X140512207Y-47364412D01*
X140459480Y-47273087D01*
X139878497Y-46692104D01*
X139845012Y-46630781D01*
X139849996Y-46561089D01*
X139851619Y-46556966D01*
X139860128Y-46536424D01*
X139860130Y-46536420D01*
X139900500Y-46333465D01*
X139900500Y-46126535D01*
X139900499Y-46126530D01*
X140339500Y-46126530D01*
X140339500Y-46333469D01*
X140379868Y-46536412D01*
X140379870Y-46536420D01*
X140459058Y-46727596D01*
X140574024Y-46899657D01*
X140720342Y-47045975D01*
X140720345Y-47045977D01*
X140892402Y-47160941D01*
X141083580Y-47240130D01*
X141286530Y-47280499D01*
X141286534Y-47280500D01*
X141286535Y-47280500D01*
X141493466Y-47280500D01*
X141493467Y-47280499D01*
X141696420Y-47240130D01*
X141887598Y-47160941D01*
X142059655Y-47045977D01*
X142205977Y-46899655D01*
X142320941Y-46727598D01*
X142400130Y-46536420D01*
X142440500Y-46333465D01*
X142440500Y-46126535D01*
X142440499Y-46126530D01*
X145419500Y-46126530D01*
X145419500Y-46333469D01*
X145459868Y-46536412D01*
X145459870Y-46536420D01*
X145539058Y-46727596D01*
X145654024Y-46899657D01*
X145800342Y-47045975D01*
X145800345Y-47045977D01*
X145972402Y-47160941D01*
X146163580Y-47240130D01*
X146366530Y-47280499D01*
X146366534Y-47280500D01*
X146366535Y-47280500D01*
X146573466Y-47280500D01*
X146573467Y-47280499D01*
X146776420Y-47240130D01*
X146967598Y-47160941D01*
X147139655Y-47045977D01*
X147285977Y-46899655D01*
X147400941Y-46727598D01*
X147480130Y-46536420D01*
X147520500Y-46333465D01*
X147520500Y-46126535D01*
X147520499Y-46126530D01*
X150499500Y-46126530D01*
X150499500Y-46333469D01*
X150539868Y-46536412D01*
X150539870Y-46536420D01*
X150619058Y-46727596D01*
X150734024Y-46899657D01*
X150880342Y-47045975D01*
X150880345Y-47045977D01*
X151052402Y-47160941D01*
X151243580Y-47240130D01*
X151446530Y-47280499D01*
X151446534Y-47280500D01*
X151446535Y-47280500D01*
X151653466Y-47280500D01*
X151653467Y-47280499D01*
X151856420Y-47240130D01*
X152047598Y-47160941D01*
X152219655Y-47045977D01*
X152365977Y-46899655D01*
X152480941Y-46727598D01*
X152560130Y-46536420D01*
X152600500Y-46333465D01*
X152600500Y-46126535D01*
X152600499Y-46126530D01*
X153039500Y-46126530D01*
X153039500Y-46333469D01*
X153079868Y-46536412D01*
X153079870Y-46536420D01*
X153159058Y-46727596D01*
X153274024Y-46899657D01*
X153420342Y-47045975D01*
X153420345Y-47045977D01*
X153592402Y-47160941D01*
X153783580Y-47240130D01*
X153986530Y-47280499D01*
X153986534Y-47280500D01*
X153986535Y-47280500D01*
X154193466Y-47280500D01*
X154193467Y-47280499D01*
X154396420Y-47240130D01*
X154587598Y-47160941D01*
X154759655Y-47045977D01*
X154905977Y-46899655D01*
X155020941Y-46727598D01*
X155100130Y-46536420D01*
X155140500Y-46333465D01*
X155140500Y-46126535D01*
X155140499Y-46126530D01*
X155579500Y-46126530D01*
X155579500Y-46333469D01*
X155619868Y-46536412D01*
X155619870Y-46536420D01*
X155699058Y-46727596D01*
X155814024Y-46899657D01*
X155960342Y-47045975D01*
X155960345Y-47045977D01*
X156132402Y-47160941D01*
X156323580Y-47240130D01*
X156526530Y-47280499D01*
X156526534Y-47280500D01*
X156526535Y-47280500D01*
X156733466Y-47280500D01*
X156733467Y-47280499D01*
X156752310Y-47276751D01*
X156800211Y-47267224D01*
X156863911Y-47254552D01*
X156936420Y-47240130D01*
X157127598Y-47160941D01*
X157299655Y-47045977D01*
X157445977Y-46899655D01*
X157560941Y-46727598D01*
X157640130Y-46536420D01*
X157680500Y-46333465D01*
X157680500Y-46126535D01*
X157640130Y-45923580D01*
X157560941Y-45732402D01*
X157445977Y-45560345D01*
X157445975Y-45560342D01*
X157299657Y-45414024D01*
X157183332Y-45336299D01*
X157127598Y-45299059D01*
X156936420Y-45219870D01*
X156936412Y-45219868D01*
X156733469Y-45179500D01*
X156733465Y-45179500D01*
X156526535Y-45179500D01*
X156526530Y-45179500D01*
X156323587Y-45219868D01*
X156323579Y-45219870D01*
X156132403Y-45299058D01*
X155960342Y-45414024D01*
X155814024Y-45560342D01*
X155699058Y-45732403D01*
X155619870Y-45923579D01*
X155619868Y-45923587D01*
X155579500Y-46126530D01*
X155140499Y-46126530D01*
X155100130Y-45923580D01*
X155020941Y-45732402D01*
X154905977Y-45560345D01*
X154905975Y-45560342D01*
X154759657Y-45414024D01*
X154643332Y-45336299D01*
X154587598Y-45299059D01*
X154396420Y-45219870D01*
X154396412Y-45219868D01*
X154193469Y-45179500D01*
X154193465Y-45179500D01*
X153986535Y-45179500D01*
X153986530Y-45179500D01*
X153783587Y-45219868D01*
X153783579Y-45219870D01*
X153592403Y-45299058D01*
X153420342Y-45414024D01*
X153274024Y-45560342D01*
X153159058Y-45732403D01*
X153079870Y-45923579D01*
X153079868Y-45923587D01*
X153039500Y-46126530D01*
X152600499Y-46126530D01*
X152560130Y-45923580D01*
X152480941Y-45732402D01*
X152365977Y-45560345D01*
X152365975Y-45560342D01*
X152219657Y-45414024D01*
X152103332Y-45336299D01*
X152047598Y-45299059D01*
X151856420Y-45219870D01*
X151856412Y-45219868D01*
X151653469Y-45179500D01*
X151653465Y-45179500D01*
X151446535Y-45179500D01*
X151446530Y-45179500D01*
X151243587Y-45219868D01*
X151243579Y-45219870D01*
X151052403Y-45299058D01*
X150880342Y-45414024D01*
X150734024Y-45560342D01*
X150619058Y-45732403D01*
X150539870Y-45923579D01*
X150539868Y-45923587D01*
X150499500Y-46126530D01*
X147520499Y-46126530D01*
X147480130Y-45923580D01*
X147400941Y-45732402D01*
X147285977Y-45560345D01*
X147285975Y-45560342D01*
X147139657Y-45414024D01*
X147023332Y-45336299D01*
X146967598Y-45299059D01*
X146776420Y-45219870D01*
X146776412Y-45219868D01*
X146573469Y-45179500D01*
X146573465Y-45179500D01*
X146366535Y-45179500D01*
X146366530Y-45179500D01*
X146163587Y-45219868D01*
X146163579Y-45219870D01*
X145972403Y-45299058D01*
X145800342Y-45414024D01*
X145654024Y-45560342D01*
X145539058Y-45732403D01*
X145459870Y-45923579D01*
X145459868Y-45923587D01*
X145419500Y-46126530D01*
X142440499Y-46126530D01*
X142400130Y-45923580D01*
X142320941Y-45732402D01*
X142205977Y-45560345D01*
X142205975Y-45560342D01*
X142059657Y-45414024D01*
X141943332Y-45336299D01*
X141887598Y-45299059D01*
X141696420Y-45219870D01*
X141696412Y-45219868D01*
X141493469Y-45179500D01*
X141493465Y-45179500D01*
X141286535Y-45179500D01*
X141286530Y-45179500D01*
X141083587Y-45219868D01*
X141083579Y-45219870D01*
X140892403Y-45299058D01*
X140720342Y-45414024D01*
X140574024Y-45560342D01*
X140459058Y-45732403D01*
X140379870Y-45923579D01*
X140379868Y-45923587D01*
X140339500Y-46126530D01*
X139900499Y-46126530D01*
X139860130Y-45923580D01*
X139780941Y-45732402D01*
X139665977Y-45560345D01*
X139665975Y-45560342D01*
X139519657Y-45414024D01*
X139403332Y-45336299D01*
X139347598Y-45299059D01*
X139156420Y-45219870D01*
X139156412Y-45219868D01*
X138953469Y-45179500D01*
X138953465Y-45179500D01*
X138746535Y-45179500D01*
X138746530Y-45179500D01*
X138543587Y-45219868D01*
X138543579Y-45219870D01*
X138352403Y-45299058D01*
X138180342Y-45414024D01*
X138034024Y-45560342D01*
X137919058Y-45732403D01*
X137839870Y-45923579D01*
X137839868Y-45923587D01*
X137799500Y-46126530D01*
X137360499Y-46126530D01*
X137320130Y-45923580D01*
X137240941Y-45732402D01*
X137125977Y-45560345D01*
X137125975Y-45560342D01*
X136979657Y-45414024D01*
X136863332Y-45336299D01*
X136807598Y-45299059D01*
X136616420Y-45219870D01*
X136616412Y-45219868D01*
X136413469Y-45179500D01*
X136413465Y-45179500D01*
X136206535Y-45179500D01*
X136206530Y-45179500D01*
X136003587Y-45219868D01*
X136003579Y-45219870D01*
X135812403Y-45299058D01*
X135640342Y-45414024D01*
X135494024Y-45560342D01*
X135379058Y-45732403D01*
X135299870Y-45923579D01*
X135299868Y-45923587D01*
X135259500Y-46126530D01*
X134820499Y-46126530D01*
X134780130Y-45923580D01*
X134700941Y-45732402D01*
X134585977Y-45560345D01*
X134585975Y-45560342D01*
X134439657Y-45414024D01*
X134323332Y-45336299D01*
X134267598Y-45299059D01*
X134076420Y-45219870D01*
X134076412Y-45219868D01*
X133873469Y-45179500D01*
X133873465Y-45179500D01*
X133666535Y-45179500D01*
X133666530Y-45179500D01*
X133463587Y-45219868D01*
X133463579Y-45219870D01*
X133272403Y-45299058D01*
X133100342Y-45414024D01*
X132954024Y-45560342D01*
X132839058Y-45732403D01*
X132759870Y-45923579D01*
X132759868Y-45923587D01*
X132719500Y-46126530D01*
X132719500Y-46333469D01*
X132759868Y-46536412D01*
X132759870Y-46536420D01*
X132839058Y-46727596D01*
X132954024Y-46899657D01*
X133100342Y-47045975D01*
X133100345Y-47045977D01*
X133272402Y-47160941D01*
X133463580Y-47240130D01*
X133666530Y-47280499D01*
X133666534Y-47280500D01*
X133666535Y-47280500D01*
X133873466Y-47280500D01*
X133873467Y-47280499D01*
X134076420Y-47240130D01*
X134096967Y-47231618D01*
X134166435Y-47224147D01*
X134228915Y-47255420D01*
X134232104Y-47258497D01*
X134584181Y-47610574D01*
X134598884Y-47637501D01*
X134615477Y-47663320D01*
X134616368Y-47669520D01*
X134617666Y-47671897D01*
X134620500Y-47698255D01*
X134620500Y-47842871D01*
X134600815Y-47909910D01*
X134548011Y-47955665D01*
X134478853Y-47965609D01*
X134427610Y-47945974D01*
X134313148Y-47869494D01*
X134267598Y-47839059D01*
X134176872Y-47801479D01*
X134076420Y-47759870D01*
X134076412Y-47759868D01*
X133873469Y-47719500D01*
X133873465Y-47719500D01*
X133666535Y-47719500D01*
X133666530Y-47719500D01*
X133463587Y-47759868D01*
X133463579Y-47759870D01*
X133272403Y-47839058D01*
X133100344Y-47954023D01*
X133006150Y-48048217D01*
X132944826Y-48081701D01*
X132875135Y-48076717D01*
X132819202Y-48034845D01*
X132811083Y-48022537D01*
X132801482Y-48005908D01*
X132801477Y-48005902D01*
X131956097Y-47160522D01*
X131956095Y-47160520D01*
X131882768Y-47118184D01*
X131864771Y-47107793D01*
X131812423Y-47093767D01*
X131762909Y-47080500D01*
X131762908Y-47080500D01*
X130158255Y-47080500D01*
X130091216Y-47060815D01*
X130070574Y-47044181D01*
X129718497Y-46692104D01*
X129685012Y-46630781D01*
X129689996Y-46561089D01*
X129691619Y-46556966D01*
X129700128Y-46536424D01*
X129700130Y-46536420D01*
X129740500Y-46333465D01*
X129740500Y-46126535D01*
X129700130Y-45923580D01*
X129620941Y-45732402D01*
X129505977Y-45560345D01*
X129505975Y-45560342D01*
X129359657Y-45414024D01*
X129243332Y-45336299D01*
X129187598Y-45299059D01*
X128996420Y-45219870D01*
X128996412Y-45219868D01*
X128793469Y-45179500D01*
X128793465Y-45179500D01*
X128586535Y-45179500D01*
X128586530Y-45179500D01*
X128383587Y-45219868D01*
X128383579Y-45219870D01*
X128192403Y-45299058D01*
X128020342Y-45414024D01*
X127874024Y-45560342D01*
X127759058Y-45732403D01*
X127679870Y-45923579D01*
X127679868Y-45923587D01*
X127639500Y-46126530D01*
X127200499Y-46126530D01*
X127160130Y-45923580D01*
X127080941Y-45732402D01*
X126965977Y-45560345D01*
X126965975Y-45560342D01*
X126819657Y-45414024D01*
X126703332Y-45336299D01*
X126647598Y-45299059D01*
X126456420Y-45219870D01*
X126456412Y-45219868D01*
X126253469Y-45179500D01*
X126253465Y-45179500D01*
X126046535Y-45179500D01*
X126046530Y-45179500D01*
X125843587Y-45219868D01*
X125843579Y-45219870D01*
X125652403Y-45299058D01*
X125480342Y-45414024D01*
X125334024Y-45560342D01*
X125219058Y-45732403D01*
X125139870Y-45923579D01*
X125139868Y-45923587D01*
X125099500Y-46126530D01*
X125099500Y-46333469D01*
X125139868Y-46536412D01*
X125139870Y-46536420D01*
X125219058Y-46727596D01*
X125334024Y-46899657D01*
X125341186Y-46906819D01*
X125374671Y-46968142D01*
X125369687Y-47037834D01*
X125327815Y-47093767D01*
X125262351Y-47118184D01*
X125253505Y-47118500D01*
X121966495Y-47118500D01*
X121899456Y-47098815D01*
X121853701Y-47046011D01*
X121843757Y-46976853D01*
X121872782Y-46913297D01*
X121878814Y-46906819D01*
X121885974Y-46899658D01*
X121885975Y-46899657D01*
X121885977Y-46899655D01*
X122000941Y-46727598D01*
X122080130Y-46536420D01*
X122120500Y-46333465D01*
X122120500Y-46126535D01*
X122080130Y-45923580D01*
X122000941Y-45732402D01*
X121885977Y-45560345D01*
X121885975Y-45560342D01*
X121739657Y-45414024D01*
X121623332Y-45336299D01*
X121567598Y-45299059D01*
X121376420Y-45219870D01*
X121376412Y-45219868D01*
X121173469Y-45179500D01*
X121173465Y-45179500D01*
X120966535Y-45179500D01*
X120966530Y-45179500D01*
X120763587Y-45219868D01*
X120763579Y-45219870D01*
X120572403Y-45299058D01*
X120400342Y-45414024D01*
X120254024Y-45560342D01*
X120139058Y-45732403D01*
X120059870Y-45923579D01*
X120059868Y-45923587D01*
X120019500Y-46126530D01*
X120019500Y-46333469D01*
X120059868Y-46536412D01*
X120059870Y-46536420D01*
X120139058Y-46727596D01*
X120254024Y-46899657D01*
X120261186Y-46906819D01*
X120294671Y-46968142D01*
X120289687Y-47037834D01*
X120247815Y-47093767D01*
X120182351Y-47118184D01*
X120173505Y-47118500D01*
X119426495Y-47118500D01*
X119359456Y-47098815D01*
X119313701Y-47046011D01*
X119303757Y-46976853D01*
X119332782Y-46913297D01*
X119338814Y-46906819D01*
X119345974Y-46899658D01*
X119345975Y-46899657D01*
X119345977Y-46899655D01*
X119460941Y-46727598D01*
X119540130Y-46536420D01*
X119580500Y-46333465D01*
X119580500Y-46126535D01*
X119540130Y-45923580D01*
X119460941Y-45732402D01*
X119345977Y-45560345D01*
X119345975Y-45560342D01*
X119199657Y-45414024D01*
X119083332Y-45336299D01*
X119027598Y-45299059D01*
X118836420Y-45219870D01*
X118836412Y-45219868D01*
X118633469Y-45179500D01*
X118633465Y-45179500D01*
X118426535Y-45179500D01*
X118426530Y-45179500D01*
X118223587Y-45219868D01*
X118223579Y-45219870D01*
X118032403Y-45299058D01*
X117860342Y-45414024D01*
X117714024Y-45560342D01*
X117599058Y-45732403D01*
X117519870Y-45923579D01*
X117519868Y-45923587D01*
X117479500Y-46126530D01*
X117479500Y-46333469D01*
X117519868Y-46536412D01*
X117519870Y-46536420D01*
X117599058Y-46727596D01*
X117714024Y-46899657D01*
X117721186Y-46906819D01*
X117754671Y-46968142D01*
X117749687Y-47037834D01*
X117707815Y-47093767D01*
X117642351Y-47118184D01*
X117633505Y-47118500D01*
X116886495Y-47118500D01*
X116819456Y-47098815D01*
X116773701Y-47046011D01*
X116763757Y-46976853D01*
X116792782Y-46913297D01*
X116798814Y-46906819D01*
X116805974Y-46899658D01*
X116805975Y-46899657D01*
X116805977Y-46899655D01*
X116920941Y-46727598D01*
X117000130Y-46536420D01*
X117040500Y-46333465D01*
X117040500Y-46126535D01*
X117000130Y-45923580D01*
X116920941Y-45732402D01*
X116805977Y-45560345D01*
X116805975Y-45560342D01*
X116659657Y-45414024D01*
X116543332Y-45336299D01*
X116487598Y-45299059D01*
X116296420Y-45219870D01*
X116296412Y-45219868D01*
X116093469Y-45179500D01*
X116093465Y-45179500D01*
X115886535Y-45179500D01*
X115886530Y-45179500D01*
X115683587Y-45219868D01*
X115683579Y-45219870D01*
X115492403Y-45299058D01*
X115320342Y-45414024D01*
X115174024Y-45560342D01*
X115059058Y-45732403D01*
X114979870Y-45923579D01*
X114979868Y-45923587D01*
X114939500Y-46126530D01*
X114939500Y-46333469D01*
X114979868Y-46536412D01*
X114979870Y-46536420D01*
X115059058Y-46727596D01*
X115174024Y-46899657D01*
X115181186Y-46906819D01*
X115214671Y-46968142D01*
X115209687Y-47037834D01*
X115167815Y-47093767D01*
X115102351Y-47118184D01*
X115093505Y-47118500D01*
X111806495Y-47118500D01*
X111739456Y-47098815D01*
X111693701Y-47046011D01*
X111683757Y-46976853D01*
X111712782Y-46913297D01*
X111718814Y-46906819D01*
X111725974Y-46899658D01*
X111725975Y-46899657D01*
X111725977Y-46899655D01*
X111840941Y-46727598D01*
X111920130Y-46536420D01*
X111960500Y-46333465D01*
X111960500Y-46126535D01*
X111920130Y-45923580D01*
X111840941Y-45732402D01*
X111725977Y-45560345D01*
X111725975Y-45560342D01*
X111579657Y-45414024D01*
X111463332Y-45336299D01*
X111407598Y-45299059D01*
X111216420Y-45219870D01*
X111216412Y-45219868D01*
X111013469Y-45179500D01*
X111013465Y-45179500D01*
X110806535Y-45179500D01*
X110806530Y-45179500D01*
X110603587Y-45219868D01*
X110603579Y-45219870D01*
X110412403Y-45299058D01*
X110240342Y-45414024D01*
X110094024Y-45560342D01*
X109979058Y-45732403D01*
X109899870Y-45923579D01*
X109899868Y-45923587D01*
X109859500Y-46126530D01*
X109859500Y-46333469D01*
X109899868Y-46536412D01*
X109899870Y-46536420D01*
X109979058Y-46727596D01*
X110094024Y-46899657D01*
X110101186Y-46906819D01*
X110134671Y-46968142D01*
X110129687Y-47037834D01*
X110087815Y-47093767D01*
X110022351Y-47118184D01*
X110013505Y-47118500D01*
X109568273Y-47118500D01*
X109466410Y-47145793D01*
X109375087Y-47198520D01*
X109375084Y-47198522D01*
X108890426Y-47683181D01*
X108829103Y-47716666D01*
X108802745Y-47719500D01*
X107500247Y-47719500D01*
X107441770Y-47731131D01*
X107441769Y-47731132D01*
X107375447Y-47775447D01*
X107331132Y-47841769D01*
X107331131Y-47841770D01*
X107319500Y-47900247D01*
X104789951Y-47900247D01*
X104817246Y-47816243D01*
X104850500Y-47606287D01*
X104850500Y-47393713D01*
X104817246Y-47183757D01*
X104751557Y-46981588D01*
X104655051Y-46792184D01*
X104655049Y-46792181D01*
X104655048Y-46792179D01*
X104530109Y-46620213D01*
X104379786Y-46469890D01*
X104207820Y-46344951D01*
X104018414Y-46248444D01*
X104018413Y-46248443D01*
X104018412Y-46248443D01*
X103816243Y-46182754D01*
X103816241Y-46182753D01*
X103816240Y-46182753D01*
X103654957Y-46157208D01*
X103606287Y-46149500D01*
X103393713Y-46149500D01*
X103345042Y-46157208D01*
X103183760Y-46182753D01*
X102981585Y-46248444D01*
X102792179Y-46344951D01*
X102620213Y-46469890D01*
X102469890Y-46620213D01*
X102344951Y-46792179D01*
X102248444Y-46981585D01*
X102182753Y-47183760D01*
X102149500Y-47393713D01*
X100050500Y-47393713D01*
X100050500Y-47003480D01*
X100050695Y-46996527D01*
X100059478Y-46840130D01*
X100068656Y-46676700D01*
X100070210Y-46662907D01*
X100123283Y-46350537D01*
X100126377Y-46336985D01*
X100151886Y-46248444D01*
X100187008Y-46126530D01*
X107319500Y-46126530D01*
X107319500Y-46333469D01*
X107359868Y-46536412D01*
X107359870Y-46536420D01*
X107439058Y-46727596D01*
X107554024Y-46899657D01*
X107700342Y-47045975D01*
X107700345Y-47045977D01*
X107872402Y-47160941D01*
X108063580Y-47240130D01*
X108266530Y-47280499D01*
X108266534Y-47280500D01*
X108266535Y-47280500D01*
X108473466Y-47280500D01*
X108473467Y-47280499D01*
X108676420Y-47240130D01*
X108867598Y-47160941D01*
X109039655Y-47045977D01*
X109185977Y-46899655D01*
X109300941Y-46727598D01*
X109380130Y-46536420D01*
X109420500Y-46333465D01*
X109420500Y-46126535D01*
X109380130Y-45923580D01*
X109300941Y-45732402D01*
X109185977Y-45560345D01*
X109185975Y-45560342D01*
X109039657Y-45414024D01*
X108923332Y-45336299D01*
X108867598Y-45299059D01*
X108676420Y-45219870D01*
X108676412Y-45219868D01*
X108473469Y-45179500D01*
X108473465Y-45179500D01*
X108266535Y-45179500D01*
X108266530Y-45179500D01*
X108063587Y-45219868D01*
X108063579Y-45219870D01*
X107872403Y-45299058D01*
X107700342Y-45414024D01*
X107554024Y-45560342D01*
X107439058Y-45732403D01*
X107359870Y-45923579D01*
X107359868Y-45923587D01*
X107319500Y-46126530D01*
X100187008Y-46126530D01*
X100214090Y-46032526D01*
X100218682Y-46019406D01*
X100337562Y-45732403D01*
X100339929Y-45726686D01*
X100345951Y-45714180D01*
X100499227Y-45436850D01*
X100506605Y-45425107D01*
X100689972Y-45166676D01*
X100698619Y-45155834D01*
X100909750Y-44919579D01*
X100919581Y-44909749D01*
X101155834Y-44698619D01*
X101166676Y-44689972D01*
X101425107Y-44506605D01*
X101436850Y-44499227D01*
X101714180Y-44345951D01*
X101726686Y-44339929D01*
X102019406Y-44218682D01*
X102032526Y-44214090D01*
X102336990Y-44126375D01*
X102350537Y-44123283D01*
X102662907Y-44070210D01*
X102676700Y-44068656D01*
X102996528Y-44050695D01*
X103003481Y-44050500D01*
X103016408Y-44050500D01*
X161983592Y-44050500D01*
X161996519Y-44050500D01*
X162003472Y-44050695D01*
G37*
%TD.AperFunction*%
%TD*%
M02*
