M48
; DRILL file {KiCad 9.0.5} date 2025-11-15T23:55:51+0300
; FORMAT={-:-/ absolute / metric / decimal}
; #@! TF.CreationDate,2025-11-15T23:55:51+03:00
; #@! TF.GenerationSoftware,Kicad,Pcbnew,9.0.5
; #@! TF.FileFunction,Plated,1,2,PTH
FMAT,2
METRIC
; #@! TA.AperFunction,Plated,PTH,ViaDrill
T1C0.400
; #@! TA.AperFunction,Plated,PTH,ViaDrill
T2C0.600
; #@! TA.AperFunction,Plated,PTH,ViaDrill
T3C0.800
; #@! TA.AperFunction,Plated,PTH,ComponentDrill
T4C1.000
%
G90
G05
T1
X113.132Y-74.551
X125.473Y-88.752
X132.559Y-82.479
T2
X148.92Y-58.075
X158.659Y-89.129
T3
X118.491Y-89.098
X129.159Y-73.329
X132.645Y-88.911
X158.801Y-82.118
T4
X108.37Y-46.23
X108.37Y-48.77
X110.91Y-46.23
X110.91Y-48.77
X113.45Y-46.23
X113.45Y-48.77
X115.164Y-61.9
X115.99Y-46.23
X115.99Y-48.77
X117.704Y-61.9
X118.53Y-46.23
X118.53Y-48.77
X120.244Y-61.9
X121.07Y-46.23
X121.07Y-48.77
X122.784Y-61.9
X123.61Y-46.23
X123.61Y-48.77
X125.324Y-61.9
X126.15Y-46.23
X126.15Y-48.77
X127.864Y-61.9
X128.69Y-46.23
X128.69Y-48.77
X130.404Y-61.9
X131.23Y-46.23
X131.23Y-48.77
X132.944Y-61.9
X133.77Y-46.23
X133.77Y-48.77
X136.31Y-46.23
X136.31Y-48.77
X138.85Y-46.23
X138.85Y-48.77
X141.39Y-46.23
X141.39Y-48.77
X143.93Y-46.23
X143.93Y-48.77
X144.933Y-56.058
X144.933Y-58.598
X144.933Y-61.138
X144.933Y-63.678
X144.933Y-66.218
X144.933Y-68.758
X144.933Y-71.298
X144.933Y-73.838
X146.47Y-46.23
X146.47Y-48.77
X149.01Y-46.23
X149.01Y-48.77
X151.55Y-46.23
X151.55Y-48.77
X154.09Y-46.23
X154.09Y-48.77
X156.63Y-46.23
X156.63Y-48.77
M30
