%TF.GenerationSoftware,KiCad,Pcbnew,9.0.5*%
%TF.CreationDate,2025-11-15T23:51:57+03:00*%
%TF.ProjectId,HAT_RP,4841545f-5250-42e6-9b69-6361645f7063,rev?*%
%TF.SameCoordinates,Original*%
%TF.FileFunction,Legend,Top*%
%TF.FilePolarity,Positive*%
%FSLAX46Y46*%
G04 Gerber Fmt 4.6, Leading zero omitted, Abs format (unit mm)*
G04 Created by KiCad (PCBNEW 9.0.5) date 2025-11-15 23:51:57*
%MOMM*%
%LPD*%
G01*
G04 APERTURE LIST*
%ADD10C,0.150000*%
%ADD11C,0.120000*%
G04 APERTURE END LIST*
D10*
X106767533Y-53464819D02*
X106434200Y-52988628D01*
X106196105Y-53464819D02*
X106196105Y-52464819D01*
X106196105Y-52464819D02*
X106577057Y-52464819D01*
X106577057Y-52464819D02*
X106672295Y-52512438D01*
X106672295Y-52512438D02*
X106719914Y-52560057D01*
X106719914Y-52560057D02*
X106767533Y-52655295D01*
X106767533Y-52655295D02*
X106767533Y-52798152D01*
X106767533Y-52798152D02*
X106719914Y-52893390D01*
X106719914Y-52893390D02*
X106672295Y-52941009D01*
X106672295Y-52941009D02*
X106577057Y-52988628D01*
X106577057Y-52988628D02*
X106196105Y-52988628D01*
X107719914Y-53464819D02*
X107148486Y-53464819D01*
X107434200Y-53464819D02*
X107434200Y-52464819D01*
X107434200Y-52464819D02*
X107338962Y-52607676D01*
X107338962Y-52607676D02*
X107243724Y-52702914D01*
X107243724Y-52702914D02*
X107148486Y-52750533D01*
X115301933Y-91514580D02*
X115254314Y-91562200D01*
X115254314Y-91562200D02*
X115111457Y-91609819D01*
X115111457Y-91609819D02*
X115016219Y-91609819D01*
X115016219Y-91609819D02*
X114873362Y-91562200D01*
X114873362Y-91562200D02*
X114778124Y-91466961D01*
X114778124Y-91466961D02*
X114730505Y-91371723D01*
X114730505Y-91371723D02*
X114682886Y-91181247D01*
X114682886Y-91181247D02*
X114682886Y-91038390D01*
X114682886Y-91038390D02*
X114730505Y-90847914D01*
X114730505Y-90847914D02*
X114778124Y-90752676D01*
X114778124Y-90752676D02*
X114873362Y-90657438D01*
X114873362Y-90657438D02*
X115016219Y-90609819D01*
X115016219Y-90609819D02*
X115111457Y-90609819D01*
X115111457Y-90609819D02*
X115254314Y-90657438D01*
X115254314Y-90657438D02*
X115301933Y-90705057D01*
X115635267Y-90609819D02*
X116254314Y-90609819D01*
X116254314Y-90609819D02*
X115920981Y-90990771D01*
X115920981Y-90990771D02*
X116063838Y-90990771D01*
X116063838Y-90990771D02*
X116159076Y-91038390D01*
X116159076Y-91038390D02*
X116206695Y-91086009D01*
X116206695Y-91086009D02*
X116254314Y-91181247D01*
X116254314Y-91181247D02*
X116254314Y-91419342D01*
X116254314Y-91419342D02*
X116206695Y-91514580D01*
X116206695Y-91514580D02*
X116159076Y-91562200D01*
X116159076Y-91562200D02*
X116063838Y-91609819D01*
X116063838Y-91609819D02*
X115778124Y-91609819D01*
X115778124Y-91609819D02*
X115682886Y-91562200D01*
X115682886Y-91562200D02*
X115635267Y-91514580D01*
X132639095Y-67146019D02*
X132639095Y-67955542D01*
X132639095Y-67955542D02*
X132686714Y-68050780D01*
X132686714Y-68050780D02*
X132734333Y-68098400D01*
X132734333Y-68098400D02*
X132829571Y-68146019D01*
X132829571Y-68146019D02*
X133020047Y-68146019D01*
X133020047Y-68146019D02*
X133115285Y-68098400D01*
X133115285Y-68098400D02*
X133162904Y-68050780D01*
X133162904Y-68050780D02*
X133210523Y-67955542D01*
X133210523Y-67955542D02*
X133210523Y-67146019D01*
X133591476Y-67146019D02*
X134210523Y-67146019D01*
X134210523Y-67146019D02*
X133877190Y-67526971D01*
X133877190Y-67526971D02*
X134020047Y-67526971D01*
X134020047Y-67526971D02*
X134115285Y-67574590D01*
X134115285Y-67574590D02*
X134162904Y-67622209D01*
X134162904Y-67622209D02*
X134210523Y-67717447D01*
X134210523Y-67717447D02*
X134210523Y-67955542D01*
X134210523Y-67955542D02*
X134162904Y-68050780D01*
X134162904Y-68050780D02*
X134115285Y-68098400D01*
X134115285Y-68098400D02*
X134020047Y-68146019D01*
X134020047Y-68146019D02*
X133734333Y-68146019D01*
X133734333Y-68146019D02*
X133639095Y-68098400D01*
X133639095Y-68098400D02*
X133591476Y-68050780D01*
X138041333Y-78705219D02*
X137565143Y-78705219D01*
X137565143Y-78705219D02*
X137565143Y-77705219D01*
X138898476Y-78705219D02*
X138327048Y-78705219D01*
X138612762Y-78705219D02*
X138612762Y-77705219D01*
X138612762Y-77705219D02*
X138517524Y-77848076D01*
X138517524Y-77848076D02*
X138422286Y-77943314D01*
X138422286Y-77943314D02*
X138327048Y-77990933D01*
X125315933Y-91160180D02*
X125268314Y-91207800D01*
X125268314Y-91207800D02*
X125125457Y-91255419D01*
X125125457Y-91255419D02*
X125030219Y-91255419D01*
X125030219Y-91255419D02*
X124887362Y-91207800D01*
X124887362Y-91207800D02*
X124792124Y-91112561D01*
X124792124Y-91112561D02*
X124744505Y-91017323D01*
X124744505Y-91017323D02*
X124696886Y-90826847D01*
X124696886Y-90826847D02*
X124696886Y-90683990D01*
X124696886Y-90683990D02*
X124744505Y-90493514D01*
X124744505Y-90493514D02*
X124792124Y-90398276D01*
X124792124Y-90398276D02*
X124887362Y-90303038D01*
X124887362Y-90303038D02*
X125030219Y-90255419D01*
X125030219Y-90255419D02*
X125125457Y-90255419D01*
X125125457Y-90255419D02*
X125268314Y-90303038D01*
X125268314Y-90303038D02*
X125315933Y-90350657D01*
X125696886Y-90350657D02*
X125744505Y-90303038D01*
X125744505Y-90303038D02*
X125839743Y-90255419D01*
X125839743Y-90255419D02*
X126077838Y-90255419D01*
X126077838Y-90255419D02*
X126173076Y-90303038D01*
X126173076Y-90303038D02*
X126220695Y-90350657D01*
X126220695Y-90350657D02*
X126268314Y-90445895D01*
X126268314Y-90445895D02*
X126268314Y-90541133D01*
X126268314Y-90541133D02*
X126220695Y-90683990D01*
X126220695Y-90683990D02*
X125649267Y-91255419D01*
X125649267Y-91255419D02*
X126268314Y-91255419D01*
X148779133Y-59963380D02*
X148731514Y-60011000D01*
X148731514Y-60011000D02*
X148588657Y-60058619D01*
X148588657Y-60058619D02*
X148493419Y-60058619D01*
X148493419Y-60058619D02*
X148350562Y-60011000D01*
X148350562Y-60011000D02*
X148255324Y-59915761D01*
X148255324Y-59915761D02*
X148207705Y-59820523D01*
X148207705Y-59820523D02*
X148160086Y-59630047D01*
X148160086Y-59630047D02*
X148160086Y-59487190D01*
X148160086Y-59487190D02*
X148207705Y-59296714D01*
X148207705Y-59296714D02*
X148255324Y-59201476D01*
X148255324Y-59201476D02*
X148350562Y-59106238D01*
X148350562Y-59106238D02*
X148493419Y-59058619D01*
X148493419Y-59058619D02*
X148588657Y-59058619D01*
X148588657Y-59058619D02*
X148731514Y-59106238D01*
X148731514Y-59106238D02*
X148779133Y-59153857D01*
X149683895Y-59058619D02*
X149207705Y-59058619D01*
X149207705Y-59058619D02*
X149160086Y-59534809D01*
X149160086Y-59534809D02*
X149207705Y-59487190D01*
X149207705Y-59487190D02*
X149302943Y-59439571D01*
X149302943Y-59439571D02*
X149541038Y-59439571D01*
X149541038Y-59439571D02*
X149636276Y-59487190D01*
X149636276Y-59487190D02*
X149683895Y-59534809D01*
X149683895Y-59534809D02*
X149731514Y-59630047D01*
X149731514Y-59630047D02*
X149731514Y-59868142D01*
X149731514Y-59868142D02*
X149683895Y-59963380D01*
X149683895Y-59963380D02*
X149636276Y-60011000D01*
X149636276Y-60011000D02*
X149541038Y-60058619D01*
X149541038Y-60058619D02*
X149302943Y-60058619D01*
X149302943Y-60058619D02*
X149207705Y-60011000D01*
X149207705Y-60011000D02*
X149160086Y-59963380D01*
X111936619Y-79948266D02*
X111460428Y-80281599D01*
X111936619Y-80519694D02*
X110936619Y-80519694D01*
X110936619Y-80519694D02*
X110936619Y-80138742D01*
X110936619Y-80138742D02*
X110984238Y-80043504D01*
X110984238Y-80043504D02*
X111031857Y-79995885D01*
X111031857Y-79995885D02*
X111127095Y-79948266D01*
X111127095Y-79948266D02*
X111269952Y-79948266D01*
X111269952Y-79948266D02*
X111365190Y-79995885D01*
X111365190Y-79995885D02*
X111412809Y-80043504D01*
X111412809Y-80043504D02*
X111460428Y-80138742D01*
X111460428Y-80138742D02*
X111460428Y-80519694D01*
X110936619Y-79614932D02*
X110936619Y-78995885D01*
X110936619Y-78995885D02*
X111317571Y-79329218D01*
X111317571Y-79329218D02*
X111317571Y-79186361D01*
X111317571Y-79186361D02*
X111365190Y-79091123D01*
X111365190Y-79091123D02*
X111412809Y-79043504D01*
X111412809Y-79043504D02*
X111508047Y-78995885D01*
X111508047Y-78995885D02*
X111746142Y-78995885D01*
X111746142Y-78995885D02*
X111841380Y-79043504D01*
X111841380Y-79043504D02*
X111889000Y-79091123D01*
X111889000Y-79091123D02*
X111936619Y-79186361D01*
X111936619Y-79186361D02*
X111936619Y-79472075D01*
X111936619Y-79472075D02*
X111889000Y-79567313D01*
X111889000Y-79567313D02*
X111841380Y-79614932D01*
X158610133Y-77448780D02*
X158562514Y-77496400D01*
X158562514Y-77496400D02*
X158419657Y-77544019D01*
X158419657Y-77544019D02*
X158324419Y-77544019D01*
X158324419Y-77544019D02*
X158181562Y-77496400D01*
X158181562Y-77496400D02*
X158086324Y-77401161D01*
X158086324Y-77401161D02*
X158038705Y-77305923D01*
X158038705Y-77305923D02*
X157991086Y-77115447D01*
X157991086Y-77115447D02*
X157991086Y-76972590D01*
X157991086Y-76972590D02*
X158038705Y-76782114D01*
X158038705Y-76782114D02*
X158086324Y-76686876D01*
X158086324Y-76686876D02*
X158181562Y-76591638D01*
X158181562Y-76591638D02*
X158324419Y-76544019D01*
X158324419Y-76544019D02*
X158419657Y-76544019D01*
X158419657Y-76544019D02*
X158562514Y-76591638D01*
X158562514Y-76591638D02*
X158610133Y-76639257D01*
X159467276Y-76877352D02*
X159467276Y-77544019D01*
X159229181Y-76496400D02*
X158991086Y-77210685D01*
X158991086Y-77210685D02*
X159610133Y-77210685D01*
X151267319Y-89244666D02*
X150791128Y-89577999D01*
X151267319Y-89816094D02*
X150267319Y-89816094D01*
X150267319Y-89816094D02*
X150267319Y-89435142D01*
X150267319Y-89435142D02*
X150314938Y-89339904D01*
X150314938Y-89339904D02*
X150362557Y-89292285D01*
X150362557Y-89292285D02*
X150457795Y-89244666D01*
X150457795Y-89244666D02*
X150600652Y-89244666D01*
X150600652Y-89244666D02*
X150695890Y-89292285D01*
X150695890Y-89292285D02*
X150743509Y-89339904D01*
X150743509Y-89339904D02*
X150791128Y-89435142D01*
X150791128Y-89435142D02*
X150791128Y-89816094D01*
X150600652Y-88387523D02*
X151267319Y-88387523D01*
X150219700Y-88625618D02*
X150933985Y-88863713D01*
X150933985Y-88863713D02*
X150933985Y-88244666D01*
X160766919Y-89816094D02*
X159766919Y-89816094D01*
X159766919Y-89816094D02*
X159766919Y-89577999D01*
X159766919Y-89577999D02*
X159814538Y-89435142D01*
X159814538Y-89435142D02*
X159909776Y-89339904D01*
X159909776Y-89339904D02*
X160005014Y-89292285D01*
X160005014Y-89292285D02*
X160195490Y-89244666D01*
X160195490Y-89244666D02*
X160338347Y-89244666D01*
X160338347Y-89244666D02*
X160528823Y-89292285D01*
X160528823Y-89292285D02*
X160624061Y-89339904D01*
X160624061Y-89339904D02*
X160719300Y-89435142D01*
X160719300Y-89435142D02*
X160766919Y-89577999D01*
X160766919Y-89577999D02*
X160766919Y-89816094D01*
X159862157Y-88863713D02*
X159814538Y-88816094D01*
X159814538Y-88816094D02*
X159766919Y-88720856D01*
X159766919Y-88720856D02*
X159766919Y-88482761D01*
X159766919Y-88482761D02*
X159814538Y-88387523D01*
X159814538Y-88387523D02*
X159862157Y-88339904D01*
X159862157Y-88339904D02*
X159957395Y-88292285D01*
X159957395Y-88292285D02*
X160052633Y-88292285D01*
X160052633Y-88292285D02*
X160195490Y-88339904D01*
X160195490Y-88339904D02*
X160766919Y-88911332D01*
X160766919Y-88911332D02*
X160766919Y-88292285D01*
X112419105Y-73454619D02*
X112419105Y-72454619D01*
X112419105Y-72454619D02*
X112657200Y-72454619D01*
X112657200Y-72454619D02*
X112800057Y-72502238D01*
X112800057Y-72502238D02*
X112895295Y-72597476D01*
X112895295Y-72597476D02*
X112942914Y-72692714D01*
X112942914Y-72692714D02*
X112990533Y-72883190D01*
X112990533Y-72883190D02*
X112990533Y-73026047D01*
X112990533Y-73026047D02*
X112942914Y-73216523D01*
X112942914Y-73216523D02*
X112895295Y-73311761D01*
X112895295Y-73311761D02*
X112800057Y-73407000D01*
X112800057Y-73407000D02*
X112657200Y-73454619D01*
X112657200Y-73454619D02*
X112419105Y-73454619D01*
X113942914Y-73454619D02*
X113371486Y-73454619D01*
X113657200Y-73454619D02*
X113657200Y-72454619D01*
X113657200Y-72454619D02*
X113561962Y-72597476D01*
X113561962Y-72597476D02*
X113466724Y-72692714D01*
X113466724Y-72692714D02*
X113371486Y-72740333D01*
X133651866Y-64174219D02*
X133651866Y-64888504D01*
X133651866Y-64888504D02*
X133604247Y-65031361D01*
X133604247Y-65031361D02*
X133509009Y-65126600D01*
X133509009Y-65126600D02*
X133366152Y-65174219D01*
X133366152Y-65174219D02*
X133270914Y-65174219D01*
X134080438Y-64269457D02*
X134128057Y-64221838D01*
X134128057Y-64221838D02*
X134223295Y-64174219D01*
X134223295Y-64174219D02*
X134461390Y-64174219D01*
X134461390Y-64174219D02*
X134556628Y-64221838D01*
X134556628Y-64221838D02*
X134604247Y-64269457D01*
X134604247Y-64269457D02*
X134651866Y-64364695D01*
X134651866Y-64364695D02*
X134651866Y-64459933D01*
X134651866Y-64459933D02*
X134604247Y-64602790D01*
X134604247Y-64602790D02*
X134032819Y-65174219D01*
X134032819Y-65174219D02*
X134651866Y-65174219D01*
X141898219Y-55451533D02*
X142612504Y-55451533D01*
X142612504Y-55451533D02*
X142755361Y-55499152D01*
X142755361Y-55499152D02*
X142850600Y-55594390D01*
X142850600Y-55594390D02*
X142898219Y-55737247D01*
X142898219Y-55737247D02*
X142898219Y-55832485D01*
X141898219Y-55070580D02*
X141898219Y-54451533D01*
X141898219Y-54451533D02*
X142279171Y-54784866D01*
X142279171Y-54784866D02*
X142279171Y-54642009D01*
X142279171Y-54642009D02*
X142326790Y-54546771D01*
X142326790Y-54546771D02*
X142374409Y-54499152D01*
X142374409Y-54499152D02*
X142469647Y-54451533D01*
X142469647Y-54451533D02*
X142707742Y-54451533D01*
X142707742Y-54451533D02*
X142802980Y-54499152D01*
X142802980Y-54499152D02*
X142850600Y-54546771D01*
X142850600Y-54546771D02*
X142898219Y-54642009D01*
X142898219Y-54642009D02*
X142898219Y-54927723D01*
X142898219Y-54927723D02*
X142850600Y-55022961D01*
X142850600Y-55022961D02*
X142802980Y-55070580D01*
X127379705Y-91945819D02*
X127379705Y-90945819D01*
X127379705Y-90945819D02*
X127617800Y-90945819D01*
X127617800Y-90945819D02*
X127760657Y-90993438D01*
X127760657Y-90993438D02*
X127855895Y-91088676D01*
X127855895Y-91088676D02*
X127903514Y-91183914D01*
X127903514Y-91183914D02*
X127951133Y-91374390D01*
X127951133Y-91374390D02*
X127951133Y-91517247D01*
X127951133Y-91517247D02*
X127903514Y-91707723D01*
X127903514Y-91707723D02*
X127855895Y-91802961D01*
X127855895Y-91802961D02*
X127760657Y-91898200D01*
X127760657Y-91898200D02*
X127617800Y-91945819D01*
X127617800Y-91945819D02*
X127379705Y-91945819D01*
X128284467Y-90945819D02*
X128903514Y-90945819D01*
X128903514Y-90945819D02*
X128570181Y-91326771D01*
X128570181Y-91326771D02*
X128713038Y-91326771D01*
X128713038Y-91326771D02*
X128808276Y-91374390D01*
X128808276Y-91374390D02*
X128855895Y-91422009D01*
X128855895Y-91422009D02*
X128903514Y-91517247D01*
X128903514Y-91517247D02*
X128903514Y-91755342D01*
X128903514Y-91755342D02*
X128855895Y-91850580D01*
X128855895Y-91850580D02*
X128808276Y-91898200D01*
X128808276Y-91898200D02*
X128713038Y-91945819D01*
X128713038Y-91945819D02*
X128427324Y-91945819D01*
X128427324Y-91945819D02*
X128332086Y-91898200D01*
X128332086Y-91898200D02*
X128284467Y-91850580D01*
X106742133Y-56309619D02*
X106408800Y-55833428D01*
X106170705Y-56309619D02*
X106170705Y-55309619D01*
X106170705Y-55309619D02*
X106551657Y-55309619D01*
X106551657Y-55309619D02*
X106646895Y-55357238D01*
X106646895Y-55357238D02*
X106694514Y-55404857D01*
X106694514Y-55404857D02*
X106742133Y-55500095D01*
X106742133Y-55500095D02*
X106742133Y-55642952D01*
X106742133Y-55642952D02*
X106694514Y-55738190D01*
X106694514Y-55738190D02*
X106646895Y-55785809D01*
X106646895Y-55785809D02*
X106551657Y-55833428D01*
X106551657Y-55833428D02*
X106170705Y-55833428D01*
X107123086Y-55404857D02*
X107170705Y-55357238D01*
X107170705Y-55357238D02*
X107265943Y-55309619D01*
X107265943Y-55309619D02*
X107504038Y-55309619D01*
X107504038Y-55309619D02*
X107599276Y-55357238D01*
X107599276Y-55357238D02*
X107646895Y-55404857D01*
X107646895Y-55404857D02*
X107694514Y-55500095D01*
X107694514Y-55500095D02*
X107694514Y-55595333D01*
X107694514Y-55595333D02*
X107646895Y-55738190D01*
X107646895Y-55738190D02*
X107075467Y-56309619D01*
X107075467Y-56309619D02*
X107694514Y-56309619D01*
D11*
%TO.C,R1*%
X109628136Y-52275000D02*
X110082264Y-52275000D01*
X109628136Y-53745000D02*
X110082264Y-53745000D01*
%TO.C,C3*%
X114231200Y-82652037D02*
X114231200Y-90107600D01*
X114231200Y-90107600D02*
X116981200Y-90107600D01*
X115295637Y-81587600D02*
X114231200Y-82652037D01*
X115295637Y-81587600D02*
X116981200Y-81587600D01*
X121001200Y-80347600D02*
X121001200Y-81347600D01*
X121501200Y-80847600D02*
X120501200Y-80847600D01*
X121686763Y-81587600D02*
X120001200Y-81587600D01*
X121686763Y-81587600D02*
X122751200Y-82652037D01*
X122751200Y-82652037D02*
X122751200Y-90107600D01*
X122751200Y-90107600D02*
X120001200Y-90107600D01*
%TO.C,U3*%
X123959200Y-78288600D02*
X123959200Y-79653600D01*
X123959200Y-79653600D02*
X124909200Y-79653600D01*
X134359200Y-78288600D02*
X134359200Y-79653600D01*
X134359200Y-79653600D02*
X133409200Y-79653600D01*
X124949200Y-82478600D02*
X124479200Y-82818600D01*
X124479200Y-82138600D01*
X124949200Y-82478600D01*
G36*
X124949200Y-82478600D02*
G01*
X124479200Y-82818600D01*
X124479200Y-82138600D01*
X124949200Y-82478600D01*
G37*
%TO.C,L1*%
X136067200Y-79631400D02*
X139067200Y-79631400D01*
X136067200Y-92231400D02*
X136067200Y-79631400D01*
X139067200Y-92231400D02*
X136067200Y-92231400D01*
X145667200Y-79631400D02*
X148667200Y-79631400D01*
X148667200Y-79631400D02*
X148667200Y-92231400D01*
X148667200Y-92231400D02*
X145667200Y-92231400D01*
%TO.C,C2*%
X124671400Y-87760548D02*
X124671400Y-88283052D01*
X126141400Y-87760548D02*
X126141400Y-88283052D01*
%TO.C,C5*%
X148185400Y-56863548D02*
X148185400Y-57386052D01*
X149655400Y-56863548D02*
X149655400Y-57386052D01*
%TO.C,R3*%
X112396800Y-80008664D02*
X112396800Y-79554536D01*
X113866800Y-80008664D02*
X113866800Y-79554536D01*
%TO.C,C4*%
X150051000Y-79608400D02*
X151051000Y-79608400D01*
X150551000Y-79108400D02*
X150551000Y-80108400D01*
X151291000Y-78922837D02*
X151291000Y-80608400D01*
X151291000Y-78922837D02*
X152355437Y-77858400D01*
X151291000Y-85313963D02*
X151291000Y-83628400D01*
X151291000Y-85313963D02*
X152355437Y-86378400D01*
X152355437Y-77858400D02*
X159811000Y-77858400D01*
X152355437Y-86378400D02*
X159811000Y-86378400D01*
X159811000Y-77858400D02*
X159811000Y-80608400D01*
X159811000Y-86378400D02*
X159811000Y-83628400D01*
%TO.C,R4*%
X152922236Y-88393800D02*
X153376364Y-88393800D01*
X152922236Y-89863800D02*
X153376364Y-89863800D01*
%TO.C,D2*%
X156721300Y-90088800D02*
X159406300Y-90088800D01*
X159406300Y-88168800D02*
X156721300Y-88168800D01*
X159406300Y-90088800D02*
X159406300Y-88168800D01*
%TO.C,D1*%
X112171800Y-73804000D02*
X112171800Y-76489000D01*
X114091800Y-73804000D02*
X112171800Y-73804000D01*
X114091800Y-76489000D02*
X114091800Y-73804000D01*
%TO.C,J2*%
X113833800Y-60570000D02*
X115163800Y-60570000D01*
X113833800Y-61900000D02*
X113833800Y-60570000D01*
X116433800Y-60570000D02*
X134273800Y-60570000D01*
X116433800Y-63230000D02*
X116433800Y-60570000D01*
X116433800Y-63230000D02*
X134273800Y-63230000D01*
X134273800Y-63230000D02*
X134273800Y-60570000D01*
%TO.C,J3*%
X143602600Y-72568000D02*
X143602600Y-54728000D01*
X143602600Y-75168000D02*
X143602600Y-73838000D01*
X144932600Y-75168000D02*
X143602600Y-75168000D01*
X146262600Y-54728000D02*
X143602600Y-54728000D01*
X146262600Y-72568000D02*
X143602600Y-72568000D01*
X146262600Y-72568000D02*
X146262600Y-54728000D01*
%TO.C,D3*%
X127135400Y-87260800D02*
X127135400Y-90560800D01*
X127135400Y-87260800D02*
X132645400Y-87260800D01*
X127135400Y-90560800D02*
X132645400Y-90560800D01*
%TO.C,R2*%
X109628136Y-55170600D02*
X110082264Y-55170600D01*
X109628136Y-56640600D02*
X110082264Y-56640600D01*
%TD*%
M02*
